<?xml version="1.0" encoding="UTF-8"?>
<svg id="Layer_1" xmlns="http://www.w3.org/2000/svg" viewBox="0 0 1000 525">
  <defs>
    <style>
      .cls-1 {
        fill: #7c297d;
      }

      .cls-2 {
        fill: #f79a23;
      }

      .cls-3 {
        fill: #dd552c;
      }

      .cls-4 {
        fill: #d22128;
      }
    </style>
  </defs>
  <g>
    <g>
      <path class="cls-1" d="M458.8041825,181.7454822h49.0451573l87.4128103,220.0939304h-53.4548455l-14.7775045-38.0445002h-87.4060779l-15.0939249,38.0445002h-53.1384251l87.4128103-220.0939304ZM514.4537735,324.4914631l-31.1236462-80.4919562-30.8139581,80.4919562h61.9376043Z"/>
      <path class="cls-1" d="M622.7166664,331.7220052h48.7354693c.3164204,21.0655178,16.0364536,33.3318564,40.2459781,33.3318564,20.7490974,0,33.9579648-8.4894912,33.9579648-23.2669957,0-15.4103452-14.1513961-24.5259448-45.2750423-31.4467989-51.5697879-10.6909691-76.0957328-32.0661749-76.0957328-68.2256176,0-39.9295577,31.7564869-64.7719229,82.3837461-64.7719229,52.189164,0,85.5210204,28.2960599,85.5210204,72.6285734h-48.1093609c0-19.8065687-13.8349757-31.7564869-36.7855511-31.7564869-21.0655178,0-33.9579648,8.8059116-33.9579648,23.2669957,0,13.5252877,11.6334979,22.0147789,45.2750423,29.8714294,54.7137946,12.892447,77.6643699,33.6415444,77.6643699,68.542038,0,41.5049272-32.0729073,66.3472924-84.2620713,66.3472924-55.339903,0-89.2978678-28.9289006-89.2978678-74.5203633Z"/>
      <path class="cls-1" d="M852.9091193,181.7454822h137.7169167v45.2750423h-87.7224983v55.0234826h79.8591155v44.0228255h-79.8591155v75.7725801h-49.9944184v-220.0939304Z"/>
    </g>
    <g>
      <path class="cls-3" d="M141.1077177,209.8881008c13.1869872-32.608129,27.9005344-65.1523006,43.6878912-93.9970469-23.5665852-17.5041056-46.1956909-55.2490163-55.4930639-71.9721694-3.3392448,3.7936783-5.5070609,8.1629723-6.4899838,11.7176522-8.7587851,31.6252061,22.4204029,69.8144518-2.6929393,55.86166-20.9241385-11.6267655-68.040478-37.0885068-86.0124818-11.7816095,20.1280383,25.862316,72.7733189,90.9304622,107.0005776,110.1715137Z"/>
      <path class="cls-2" d="M184.7956089,115.8910539c15.2975784-27.9493439,31.5999598-52.4281623,48.5015202-70.0635487,0,0-16.8578001,24.4013964-40.9360438,73.180626,14.5822664,4.0158458,56.1124399,12.2562401,113.9601427-2.686207,1.4222086-10.5125619-5.645074-22.0753701-40.8636711-25.9464703-22.9926525-2.5246306,27.5975787-54.9023003-9.0516423-79.6739759-1.1832102-.8011494-2.3462234-1.508046-3.4856733-2.1408868-1.2286536-.4409688-2.5263137-.8449097-3.9114944-1.2050903-42.8025874-11.1689658-48.7354693,61.409115-65.8154369,45.8068978-27.6009449-25.2126444-45.0225792-19.3218396-53.890765-9.2435142,9.297373,16.7231532,31.9264787,54.4680639,55.4930639,71.9721694Z"/>
      <path class="cls-4" d="M106.6818547,303.8380213c9.6626029-28.9457315,21.2860022-61.4663399,34.425863-93.9499204-34.2272587-19.2410514-86.8725393-84.3091977-107.0005776-110.1715137-3.5933909,5.0559936-6.0490149,12.1081284-6.8669953,21.7522173-4.3894911,51.802054,49.0518897,90.152876,38.3979485,97.1578844-14.0924881,9.2670774-42.1411341-22.2605096-53.19565-2.2284073,16.0229889,20.5841549,48.6614135,57.7770131,94.2394114,87.4397396Z"/>
      <path class="cls-3" d="M254.7564893,192.1180675c-27.0589909-9.6508213,28.2758628-35.5333343,46.2445004-62.9912168,2.2990969-3.5109196,4.6756159-8.0485224,5.3202382-12.8049265-57.8477027,14.942447-99.3778763,6.7020527-113.9601427,2.686207-12.4649429,25.2564046-26.8587035,57.0835812-41.8701571,95.4579665,15.6341958,6.6852219,79.4703224,31.3794754,169.6366631,31.50739,15.1595653-39.4852227-39.6905594-44.6994265-65.3711019-53.8554202Z"/>
      <path class="cls-4" d="M117.1371916,309.0488589c15.9001236,4.9550083,68.5841152,19.7560761,124.5366618,17.5276688,7.5166669-20.3518889-20.585838-22.3379316-22.8748364-38.6605101-1.7722907-12.6298854,73.9565291,10.6135471,98.3225807-35.3111668,1.2320197-2.3226602,2.1930625-4.5140395,3.0059935-6.6313631-90.1663407-.1279146-154.0024672-24.8221682-169.6366631-31.50739-10.9703615,28.0435968-22.2554604,59.5173251-33.3537365,94.5827612Z"/>
      <path class="cls-1" d="M117.1371916,309.0488589c-7.1447046,22.5701977-14.1934733,46.6821031-21.0352222,72.1640414-2.4270116,9.0348114-4.8254106,18.2379315-7.190148,27.6430221,53.1064464,17.531035,102.0085414.0403941,103.6663821-21.6377674.0134647-.1716749-.018514-.2995895-.0084154-.464532,1.2639984-22.9606739-33.150083-10.2331694-32.3354689-24.0378496.8179803-13.9056654,60.0811593-.0807882,78.4082944-29.8949926,1.4053777-2.2856322,2.3209771-4.3154353,3.0312398-6.244253-55.9525467,2.2284073-108.6365383-12.5726604-124.5366618-17.5276688Z"/>
      <path class="cls-1" d="M12.4424433,216.3982816c-.7742201,1.4036946-1.4727012,3.0261906-2.068514,4.9651069-10.2920775,33.4496725,62.4846076,78.3847312,52.5830064,88.180298-8.9254108,8.8261086-20.5572255-11.3440069-34.9004936-3.0127259-1.5720033.9155994-3.1675699,2.0701971-4.8052136,3.749918-16.2215932,16.6188018-.2541461,64.4958967,45.7698699,90.0518908-10.7397786,36.0618236-21.4324308,76.351562-31.8995493,118.4859638,3.7970444-1.3296388,8.3413795-2.6626438,9.4724141-6.244253,1.6982349-6.9814452,12.1939658-49.4625629,29.2352225-107.0948305,0,0,3.1103449-11.8051727,8.8042285-31.254927,5.2646964-17.9854685,12.7460184-42.5147795,22.0484407-70.3867014-45.577998-29.6627266-78.2164225-66.8555847-94.2394114-87.4397396Z"/>
    </g>
  </g>
  <g>
    <polygon class="cls-1" points="404.1671788 144.7351535 413.43089 144.7351535 413.43089 82.5349876 436.7786739 82.5349876 436.7786739 73.4732468 380.8193949 73.4732468 380.8193949 82.5349876 404.1671788 82.5349876 404.1671788 144.7351535"/>
    <polygon class="cls-1" points="464.8525663 112.9584696 501.321697 112.9584696 501.321697 144.7351535 510.6796611 144.7351535 510.6796611 73.4732468 501.321697 73.4732468 501.321697 103.8899964 464.8525663 103.8899964 464.8525663 73.4732468 455.5955874 73.4732468 455.5955874 144.7351535 464.8525663 144.7351535 464.8525663 112.9584696"/>
    <polygon class="cls-1" points="581.40298 135.9629037 546.2331925 135.9629037 546.2331925 112.8574844 577.8213707 112.8574844 577.8213707 104.0852345 546.2331925 104.0852345 546.2331925 82.1512438 580.3392689 82.1512438 580.3392689 73.4732468 536.9762136 73.4732468 536.9762136 144.7351535 581.40298 144.7351535 581.40298 135.9629037"/>
  </g>
</svg>