<?xml version="1.0" encoding="UTF-8" standalone="no"?>
<!-- Created with Inkscape (http://www.inkscape.org/) -->

<svg
   width="511.23999"
   height="511.23999"
   id="svg2"
   version="1.1"
   inkscape:version="1.4.3 (0d15f75042, 2025-12-25)"
   sodipodi:docname="jmeter_square.svg"
   xml:space="preserve"
   inkscape:export-filename="jmeter_square.png"
   inkscape:export-xdpi="48.071358"
   inkscape:export-ydpi="48.071358"
   xmlns:inkscape="http://www.inkscape.org/namespaces/inkscape"
   xmlns:sodipodi="http://sodipodi.sourceforge.net/DTD/sodipodi-0.dtd"
   xmlns:xlink="http://www.w3.org/1999/xlink"
   xmlns="http://www.w3.org/2000/svg"
   xmlns:svg="http://www.w3.org/2000/svg"
   xmlns:rdf="http://www.w3.org/1999/02/22-rdf-syntax-ns#"
   xmlns:cc="http://creativecommons.org/ns#"
   xmlns:dc="http://purl.org/dc/elements/1.1/"><defs
     id="defs4"><linearGradient
       inkscape:collect="always"
       xlink:href="#SVGID_5_"
       id="linearGradient9387"
       x1="580.10394"
       y1="215.96693"
       x2="634.46875"
       y2="215.96693"
       gradientUnits="userSpaceOnUse" /><linearGradient
       inkscape:collect="always"
       xlink:href="#SVGID_5_"
       id="linearGradient9389"
       x1="496.00687"
       y1="216.75172"
       x2="574.69977"
       y2="216.75172"
       gradientUnits="userSpaceOnUse" /><linearGradient
       inkscape:collect="always"
       xlink:href="#SVGID_5_"
       id="linearGradient9391"
       x1="433.14154"
       y1="208.23689"
       x2="491.82263"
       y2="208.23689"
       gradientUnits="userSpaceOnUse" /><linearGradient
       inkscape:collect="always"
       xlink:href="#SVGID_5_"
       id="linearGradient9393"
       x1="351.91241"
       y1="216.75172"
       x2="430.60532"
       y2="216.75172"
       gradientUnits="userSpaceOnUse" /><linearGradient
       inkscape:collect="always"
       xlink:href="#SVGID_5_"
       id="linearGradient9395"
       x1="225.43741"
       y1="203.29279"
       x2="344.31088"
       y2="203.29279"
       gradientUnits="userSpaceOnUse" /><linearGradient
       inkscape:collect="always"
       xlink:href="#SVGID_1_"
       id="linearGradient3611"
       gradientUnits="userSpaceOnUse"
       gradientTransform="matrix(0.4226,-0.9063,0.9063,0.4226,4226.9761,-6584.5938)"
       x1="-7708.7969"
       y1="-803.36011"
       x2="-7633.1528"
       y2="-714.90741" /><linearGradient
       inkscape:collect="always"
       xlink:href="#SVGID_2_"
       id="linearGradient3613"
       gradientUnits="userSpaceOnUse"
       gradientTransform="matrix(0.4226,-0.9063,0.9063,0.4226,4226.9761,-6584.5938)"
       x1="-8268.6387"
       y1="-813.12323"
       x2="-7728.9585"
       y2="-813.12323" /><linearGradient
       inkscape:collect="always"
       xlink:href="#SVGID_3_"
       id="linearGradient3615"
       gradientUnits="userSpaceOnUse"
       gradientTransform="matrix(0.4226,-0.9063,0.9063,0.4226,4226.9761,-6584.5938)"
       x1="-8203.4922"
       y1="-758.99402"
       x2="-7881.895"
       y2="-758.99402" /><linearGradient
       inkscape:collect="always"
       xlink:href="#SVGID_4_"
       id="linearGradient3617"
       gradientUnits="userSpaceOnUse"
       gradientTransform="matrix(0.4226,-0.9063,0.9063,0.4226,4226.9761,-6584.5938)"
       x1="-8238.3281"
       y1="-818.15222"
       x2="-7698.647"
       y2="-818.15222" /><linearGradient
       inkscape:collect="always"
       xlink:href="#SVGID_5_"
       id="linearGradient3619"
       gradientUnits="userSpaceOnUse"
       gradientTransform="matrix(0.4226,-0.9063,0.9063,0.4226,4226.9761,-6584.5938)"
       x1="-8198.9678"
       y1="-810.85059"
       x2="-7915.3501"
       y2="-810.85059" /><linearGradient
       inkscape:collect="always"
       xlink:href="#SVGID_6_"
       id="linearGradient3621"
       gradientUnits="userSpaceOnUse"
       gradientTransform="matrix(0.4226,-0.9063,0.9063,0.4226,4226.9761,-6584.5938)"
       x1="-8238.3281"
       y1="-762.29712"
       x2="-7698.647"
       y2="-762.29712" /><linearGradient
       inkscape:collect="always"
       xlink:href="#SVGID_7_"
       id="linearGradient3623"
       gradientUnits="userSpaceOnUse"
       gradientTransform="matrix(0.4226,-0.9063,0.9063,0.4226,4226.9761,-6584.5938)"
       x1="-8271.8057"
       y1="-765.07068"
       x2="-7732.125"
       y2="-765.07068" /><linearGradient
       inkscape:collect="always"
       xlink:href="#SVGID_8_"
       id="linearGradient3625"
       gradientUnits="userSpaceOnUse"
       gradientTransform="matrix(0.4226,-0.9063,0.9063,0.4226,4226.9761,-6584.5938)"
       x1="-8238.3281"
       y1="-745.68481"
       x2="-7698.647"
       y2="-745.68481" /><linearGradient
       inkscape:collect="always"
       xlink:href="#SVGID_9_"
       id="linearGradient3627"
       gradientUnits="userSpaceOnUse"
       gradientTransform="matrix(0.4226,-0.9063,0.9063,0.4226,4226.9761,-6584.5938)"
       x1="-8238.3281"
       y1="-747.58557"
       x2="-7698.647"
       y2="-747.58557" /><linearGradient
       inkscape:collect="always"
       xlink:href="#SVGID_10_"
       id="linearGradient3629"
       gradientUnits="userSpaceOnUse"
       gradientTransform="matrix(0.4226,-0.9063,0.9063,0.4226,4226.9761,-6584.5938)"
       x1="-7935.1431"
       y1="-747.9668"
       x2="-7815.856"
       y2="-747.9668" /><style
       id="style1">
      .cls-1 {
        fill: #7c297d;
      }

      .cls-2 {
        fill: #f79a23;
      }

      .cls-3 {
        fill: #dd552c;
      }

      .cls-4 {
        fill: #d22128;
      }
    </style></defs><sodipodi:namedview
     id="base"
     pagecolor="#ffffff"
     bordercolor="#666666"
     borderopacity="1.0"
     inkscape:pageopacity="0.0"
     inkscape:pageshadow="2"
     inkscape:zoom="0.91180547"
     inkscape:cx="202.34579"
     inkscape:cy="201.24907"
     inkscape:document-units="px"
     inkscape:current-layer="layer1"
     showgrid="false"
     showguides="true"
     inkscape:guide-bbox="true"
     inkscape:window-width="1920"
     inkscape:window-height="1124"
     inkscape:window-x="0"
     inkscape:window-y="0"
     inkscape:window-maximized="1"
     fit-margin-top="0"
     fit-margin-left="0"
     fit-margin-right="0"
     fit-margin-bottom="0"
     inkscape:showpageshadow="2"
     inkscape:pagecheckerboard="0"
     inkscape:deskcolor="#d1d1d1" /><metadata
     id="metadata7"><rdf:RDF><cc:Work
         rdf:about=""><dc:format>image/svg+xml</dc:format><dc:type
           rdf:resource="http://purl.org/dc/dcmitype/StillImage" /><dc:title /></cc:Work></rdf:RDF></metadata><g
     inkscape:label="Ebene 1"
     inkscape:groupmode="layer"
     id="layer1"
     transform="translate(647.23187,288.06562)"><g
       id="g3347"
       transform="matrix(0.61056696,0,0,0.61056696,-671.81995,122.75139)" /><g
       id="g3349"
       transform="matrix(0.61056696,0,0,0.61056696,-671.81995,122.75139)" /><g
       id="g3351"
       transform="matrix(0.61056696,0,0,0.61056696,-671.81995,122.75139)" /><g
       id="g3353"
       transform="matrix(0.61056696,0,0,0.61056696,-671.81995,122.75139)" /><g
       id="g3355"
       transform="matrix(0.61056696,0,0,0.61056696,-671.81995,122.75139)" /><g
       id="g3357"
       transform="matrix(0.61056696,0,0,0.61056696,-671.81995,122.75139)" /><text
       xml:space="preserve"
       style="font-style:normal;font-variant:normal;font-weight:bold;font-stretch:normal;line-height:0%;font-family:Arial;-inkscape-font-specification:'Sans Bold';letter-spacing:0px;word-spacing:0px;fill:#000000;fill-opacity:1;stroke:none"
       x="175.76654"
       y="103.82894"
       id="text3762"><tspan
         sodipodi:role="line"
         id="tspan3764"
         x="175.76654"
         y="103.82894"
         style="font-style:normal;font-variant:normal;font-weight:bold;font-stretch:normal;font-size:48px;line-height:1.25;font-family:'Droid Sans';-inkscape-font-specification:'Droid Sans Bold'"> </tspan></text><g
       id="g8326"
       transform="translate(132.42046,222.12974)" /><g
       id="g8328"
       transform="translate(132.42046,222.12974)" /><g
       id="g8330"
       transform="translate(132.42046,222.12974)" /><g
       id="g8332"
       transform="translate(132.42046,222.12974)" /><g
       id="g8334"
       transform="translate(132.42046,222.12974)" /><g
       id="g8336"
       transform="translate(132.42046,222.12974)" /><path
       id="path3343"
       d="m -645.36121,64.332075 v 2.94229 h -0.82752 v -2.94229 h -1.04206 v -0.70493 h 2.88099 v 0.70493 h -1.01141 z"
       inkscape:connector-curvature="0"
       style="fill:#b0afb0" /><path
       id="path3345"
       d="m -640.48803,64.975705 -0.98077,1.99217 h -0.49038 l -0.98077,-1.99217 v 2.29866 h -0.79687 v -3.64722 h 1.10336 l 0.95012,1.99218 0.95012,-1.99218 h 1.10336 v 3.64722 h -0.79687 v -2.29866 z"
       inkscape:connector-curvature="0"
       style="fill:#b0afb0" /><path
       inkscape:connector-curvature="0"
       id="path3718"
       style="font-size:160.72227478px;font-style:normal;font-variant:normal;font-weight:bold;font-stretch:normal;line-height:125%;letter-spacing:0px;word-spacing:0px;fill:#d22128;fill-opacity:1;stroke:#d22128;stroke-width:3;stroke-linejoin:round;stroke-miterlimit:4;stroke-opacity:1;stroke-dasharray:none;font-family:Droid Sans;-inkscape-font-specification:Droid Sans Bold"
       d="m -611.92187,207.08073 c -3.4007,-3e-5 -6.38284,-0.18315 -8.94645,-0.54934 -2.5636,-0.31394 -4.73481,-0.70633 -6.51365,-1.17717 l 0,-20.24724 c 1.93579,0.41854 3.97621,0.78477 6.12126,1.09869 2.09274,0.3139 4.39475,0.47085 6.90603,0.47087 2.40665,-2e-5 4.63018,-0.26161 6.6706,-0.78478 2.09274,-0.5232 3.89772,-1.43877 5.41496,-2.74672 1.56955,-1.25565 2.77287,-2.956 3.60998,-5.10105 0.8894,-2.14506 1.3341,-4.83945 1.33412,-8.0832 l 0,-111.359825 24.32808,0 0,110.575055 c -4e-5,6.59212 -0.96793,12.26866 -2.90368,17.02965 -1.8835,4.76096 -4.55173,8.68484 -8.00472,11.77165 -3.40072,3.13908 -7.48156,5.44109 -12.24252,6.90604 -4.76099,1.46488 -10.01899,2.19734 -15.77401,2.19737" /><path
       style="font-size:160.72227478px;font-style:normal;font-variant:normal;font-weight:bold;font-stretch:normal;line-height:125%;letter-spacing:0px;word-spacing:0px;fill:#000000;fill-opacity:1;stroke:#000000;stroke-width:3;stroke-linejoin:round;stroke-miterlimit:4;stroke-opacity:1;stroke-dasharray:none;font-family:Droid Sans;-inkscape-font-specification:Droid Sans Bold"
       d="m -559.96009,58.612855 0,114.718755 21.75,0 0,-53.375 c -10e-5,-1.46487 -0.0414,-3.1063 -0.0937,-4.9375 -3e-5,-1.83108 -0.0516,-3.73059 -0.15625,-5.71875 -0.0524,-1.98803 -0.11415,-3.99076 -0.21875,-6.03125 -0.0524,-2.04035 -0.1454,-4.032902 -0.25,-5.968752 -0.20931,-4.49931 -0.46738,-9.15537 -0.78125,-13.968753 l 0.71875,0 25.1875,90.000005 22.34375,0 27.15625,-89.843755 0.625,0 c -0.15707,4.761063 -0.32209,9.324083 -0.53125,13.718753 -0.0524,1.88354 -0.14547,3.824472 -0.25,5.812502 -0.0524,1.98817 -0.10405,3.93929 -0.15625,5.875 -0.0524,1.93585 -0.10405,3.77355 -0.15625,5.5 -1.1e-4,1.72657 -1.1e-4,3.26478 0,4.625 l 0,54.3125 22.6875,0 0,-114.718755 -33.125,0 -26.375,87.718755 -0.46875,0 -24.78125,-87.718755 -33.125,0 z m 227.78125,8.3125 -6.90625,18.500003 -13.15625,8.03125 0,10.125002 11.4375,0 0,42.28125 c -1e-5,5.65041 0.67095,10.35809 2.03125,14.125 1.41258,3.71462 3.34333,6.68782 5.75,8.9375 2.40662,2.19738 5.26641,3.76683 8.5625,4.65625 3.29602,0.88941 6.83696,1.3125 10.65625,1.3125 3.92384,0 7.54764,-0.37147 10.84375,-1.15625 3.34832,-0.73246 6.12525,-1.69275 8.375,-2.84375 l 0,-17.8125 c -2.19743,0.7848 -4.355,1.44558 -6.5,1.96875 -2.09279,0.5232 -4.33322,0.78127 -6.6875,0.78125 -2.7206,2e-5 -4.91961,-0.81561 -6.59375,-2.4375 -1.67423,-1.62185 -2.50004,-4.13053 -2.5,-7.53125 l 0,-42.28125 21.34375,0 0,-17.968752 -21.34375,0 0,-18.687503 -15.3125,0 z m -61.4375,17.03125 c -5.96434,9e-5 -11.3946,0.97055 -16.3125,2.906253 -4.86564,1.93586 -9.05719,4.81602 -12.5625,8.6875 -3.45304,3.81932 -6.15798,8.620042 -8.09375,14.375002 -1.9358,5.75509 -2.90626,12.46548 -2.90625,20.15625 -1e-5,7.58621 1.0635,14.22463 3.15625,19.875 2.14504,5.59809 5.11824,10.25416 8.9375,13.96875 3.81923,3.6623 8.37206,6.38761 13.65625,8.21875 5.28412,1.83114 11.0655,2.75 17.34375,2.75 3.24369,0 6.21688,-0.11341 8.9375,-0.375 2.7205,-0.20928 5.27061,-0.57057 7.625,-1.09375 2.35426,-0.52318 4.56344,-1.17379 6.65625,-1.90625 2.14498,-0.78478 4.28218,-1.71381 6.375,-2.8125 l 0,-18.53125 c -2.30209,1.15103 -4.5527,2.17311 -6.75,3.0625 -2.19745,0.83711 -4.43788,1.54951 -6.6875,2.125 -2.24976,0.57552 -4.56216,1.02985 -6.96875,1.34375 -2.35439,0.26161 -4.86307,0.37502 -7.53125,0.375 -3.19148,2e-5 -6.05126,-0.47468 -8.5625,-1.46875 -2.45901,-0.99403 -4.59621,-2.41883 -6.375,-4.25 -1.72655,-1.88344 -3.06849,-4.17549 -4.0625,-6.84375 -0.94177,-2.72053 -1.4579,-5.74534 -1.5625,-9.09375 l 53.5,0 0,-11.625 c -9e-5,-6.38279 -0.87751,-12.0195 -2.65625,-16.9375 -1.72659,-4.97018 -4.23527,-9.161732 -7.53125,-12.562502 -3.24381,-3.40062 -7.2289,-5.9609 -11.9375,-7.6875 -4.6564,-1.778733 -9.88021,-2.656163 -15.6875,-2.656253 z m 144.09375,0 c -5.96434,9e-5 -11.39461,0.97055 -16.3125,2.906253 -4.86565,1.93586 -9.05719,4.81602 -12.5625,8.6875 -3.45303,3.81932 -6.15798,8.620042 -8.09375,14.375002 -1.93579,5.75509 -2.90625,12.46548 -2.90625,20.15625 0,7.58621 1.0635,14.22463 3.15625,19.875 2.14504,5.59809 5.11823,10.25416 8.9375,13.96875 3.81922,3.6623 8.37206,6.38761 13.65625,8.21875 5.28413,1.83114 11.06549,2.75 17.34375,2.75 3.24369,0 6.21688,-0.11341 8.9375,-0.375 2.7205,-0.20928 5.2706,-0.57057 7.625,-1.09375 2.35426,-0.52318 4.56344,-1.17379 6.65625,-1.90625 2.14498,-0.78478 4.28218,-1.71381 6.375,-2.8125 l 0,-18.53125 c -2.30209,1.15103 -4.5527,2.17311 -6.75,3.0625 -2.19745,0.83711 -4.43788,1.54951 -6.6875,2.125 -2.24976,0.57552 -4.56216,1.02985 -6.96875,1.34375 -2.35438,0.26161 -4.86307,0.37502 -7.53125,0.375 -3.19148,2e-5 -6.05126,-0.47468 -8.5625,-1.46875 -2.45901,-0.99403 -4.56496,-2.41883 -6.34375,-4.25 -1.72654,-1.88344 -3.09973,-4.17549 -4.09375,-6.84375 -0.94176,-2.72053 -1.4579,-5.74534 -1.5625,-9.09375 l 53.5,0 0,-11.625 c -9e-5,-6.38279 -0.87751,-12.0195 -2.65625,-16.9375 -1.72659,-4.97018 -4.23526,-9.161732 -7.53125,-12.562502 -3.24381,-3.40062 -7.22891,-5.9609 -11.9375,-7.6875 -4.6564,-1.778733 -9.8802,-2.656163 -15.6875,-2.656253 z m 89.96875,0 c -2.92989,9e-5 -5.5418,0.36138 -7.84375,1.09375 -2.24975,0.680233 -4.2939,1.660883 -6.125,2.968753 -1.77887,1.25573 -3.37887,2.82518 -4.84375,4.65625 -1.46495,1.83122 -2.83814,3.84414 -4.09375,6.09375 l -1.1875,0 -3.53125,-13.15625 -18.125,0 0,87.718752 23.9375,0 0,-44.65625 c -4e-5,-4.13311 0.50592,-7.61225 1.5,-10.4375 1.04633,-2.87746 2.48131,-5.17968 4.3125,-6.90625 1.88342,-1.77876 4.12385,-3.05891 6.6875,-3.84375 2.61587,-0.78471 5.4444,-1.18743 8.53125,-1.1875 0.52312,1e-4 1.18391,0.0414 1.96875,0.0937 0.78471,6e-5 1.55891,0.0517 2.34375,0.15625 0.83703,0.0524 1.64248,0.14543 2.375,0.25 0.73239,0.1047 1.30013,0.20793 1.71875,0.3125 l 0,-22.468755 c -0.31398,-0.10455 -0.7785,-0.16635 -1.40625,-0.21875 -0.57557,-0.10455 -1.23636,-0.1976 -1.96875,-0.25 -0.68021,-0.10456 -1.40278,-0.15616 -2.1875,-0.15625 -0.73252,-0.0522 -1.43474,-0.0624 -2.0625,-0.0625 z m -233.90625,17.031255 c 2.51123,7e-5 4.71023,0.46459 6.59375,1.40625 1.88341,0.9418 3.46305,2.23213 4.71875,3.90625 1.25558,1.62194 2.18461,3.56287 2.8125,5.8125 0.62776,2.24975 0.97885,4.70681 1.03125,7.375 l -30.53125,0 c 0.41852,-6.38279 2.00834,-11.04904 4.78125,-14.03125 2.82516,-2.98208 6.35591,-4.46868 10.59375,-4.46875 z m 144.09375,0 c 2.51123,7e-5 4.71024,0.46459 6.59375,1.40625 1.88341,0.9418 3.46305,2.23213 4.71875,3.90625 1.25558,1.62194 2.18462,3.56287 2.8125,5.8125 0.62776,2.24975 0.97885,4.70681 1.03125,7.375 l -30.53125,0 c 0.41852,-6.38279 2.00834,-11.04904 4.78125,-14.03125 2.82516,-2.98208 6.35591,-4.46868 10.59375,-4.46875 z"
       id="path3720"
       inkscape:connector-curvature="0" /><g
       style="font-style:normal;font-variant:normal;font-weight:bold;font-stretch:normal;font-size:35.2646px;line-height:125%;font-family:Arial;-inkscape-font-specification:'Sans Bold';letter-spacing:0px;word-spacing:0px;fill:#4d4d4d;fill-opacity:1;stroke:none"
       id="text3756"
       transform="matrix(0.66101965,0,0,0.66101965,-598.78493,-41.604628)"><path
         d="m 658.02758,171.06244 h -5.32069 V 150.3307 h -6.31939 v -4.44251 h 17.94225 v 4.44251 h -6.30217 v 20.73174"
         style="font-family:'Droid Sans';-inkscape-font-specification:'Droid Sans Bold';fill:#4d4d4d"
         id="path3879"
         inkscape:connector-curvature="0" /><path
         d="m 678.32884,171.06244 -5.52732,-19.75025 h -0.15497 c 0.0689,1.05612 0.12627,2.07778 0.17219,3.06499 0.0229,0.42475 0.0402,0.86097 0.0517,1.30865 0.023,0.44771 0.0402,0.88966 0.0517,1.32586 0.023,0.43623 0.0344,0.85523 0.0344,1.25699 0.0115,0.4018 0.0172,0.76339 0.0172,1.08481 v 11.70895 h -4.76967 v -25.17425 h 7.26643 l 5.44122,19.2509 h 0.10332 l 5.7856,-19.2509 h 7.26644 v 25.17425 h -4.97631 v -11.91558 c -2e-5,-0.29845 -2e-5,-0.6371 0,-1.01593 0.0115,-0.3788 0.0229,-0.78058 0.0344,-1.20533 0.0115,-0.42472 0.0229,-0.8552 0.0344,-1.29143 0.0229,-0.4362 0.0401,-0.86094 0.0517,-1.27421 0.0459,-0.96425 0.0861,-1.96869 0.12053,-3.01333 h -0.13775 l -5.95779,19.71581 h -4.90743"
         style="font-family:'Droid Sans';-inkscape-font-specification:'Droid Sans Bold';fill:#4d4d4d"
         id="path3881"
         inkscape:connector-curvature="0" /></g><g
       id="g8126"
       transform="matrix(0.34856159,0,0,0.34856159,-678.72925,-55.700873)"><g
         id="g8128"><path
           style="fill:#d22128"
           inkscape:connector-curvature="0"
           d="m 232.6,277.3 49.3,-117.8 h 9.5 l 49.3,117.8 H 328.3 L 313,240.5 h -53 l -15.1,36.8 h -12.3 z m 54.1,-104.2 -24.2,58.2 h 47.8 l -23.6,-58.2 z"
           id="path8130" /><path
           style="fill:#d22128"
           inkscape:connector-curvature="0"
           d="M 353.3,277.3 V 159.5 h 48.8 c 20.2,0 34.8,18.7 34.8,37 0,19.2 -13.6,37.3 -33.8,37.3 h -38.3 v 43.5 h -11.5 z m 11.5,-53.8 h 37.7 c 13.9,0 22.9,-12.8 22.9,-27 0,-14.8 -10.9,-26.7 -23.9,-26.7 h -36.7 v 53.7 z"
           id="path8132" /><path
           style="fill:#d22128"
           inkscape:connector-curvature="0"
           d="m 430.5,277.3 49.3,-117.8 h 9.5 l 49.3,117.8 H 526 l -15.3,-36.8 h -52.9 l -15.1,36.8 h -12.2 z m 54.1,-104.2 -24.2,58.2 h 47.8 l -23.6,-58.2 z"
           id="path8134" /><path
           style="fill:#d22128"
           inkscape:connector-curvature="0"
           d="m 594.2,158.8 c 20.9,0 36.2,10.6 43.5,25.7 l -9.3,5.6 c -7.5,-15.6 -22.1,-20.9 -34.8,-20.9 -28.2,0 -43.6,25.2 -43.6,48.9 0,26 19.1,49.6 44.1,49.6 13.3,0 28.9,-6.6 36.3,-21.9 l 9.6,5 c -7.6,17.6 -28.5,27.4 -46.6,27.4 -32.3,0 -55.1,-30.9 -55.1,-60.7 0,-28.3 20.4,-58.7 55.9,-58.7 z"
           id="path8136" /><path
           style="fill:#d22128"
           inkscape:connector-curvature="0"
           d="m 749.1,159.5 v 117.8 h -11.6 v -55.1 h -69.8 v 55.1 H 656.3 V 159.5 h 11.4 v 52.4 h 69.8 v -52.4 h 11.6 z"
           id="path8138" /><path
           style="fill:#d22128"
           inkscape:connector-curvature="0"
           d="m 854.8,267 v 10.3 H 775.7 V 159.5 h 77.6 v 10.3 h -66.2 v 42.5 h 57.7 v 9.8 H 787.1 V 267 h 67.7 z"
           id="path8140" /></g></g><g
       id="g1"
       transform="matrix(0.35255596,0,0,0.35255596,-381.78056,-277.17779)"><path
         class="cls-3"
         d="M 276.70929,398.15158 C 302.23724,335.02733 330.72037,272.0269 361.28223,216.18798 315.661,182.30276 271.85458,109.23451 253.85632,76.861096 247.39206,84.205064 243.19551,92.663335 241.29273,99.544641 224.33709,160.7661 284.69512,234.69452 236.07962,207.68409 195.57375,185.17649 104.36388,135.88653 69.572883,184.87673 108.53762,234.94214 210.45066,360.90391 276.70929,398.15158 Z"
         id="path1" /><path
         class="cls-2"
         d="m 361.28223,216.18798 c 29.61372,-54.10557 61.17258,-101.49274 93.89136,-135.632093 0,0 -32.63406,47.237293 -79.24578,141.666263 28.22899,7.77405 108.62492,23.72617 220.60904,-5.20008 2.75317,-20.35067 -10.92799,-42.73447 -79.10569,-50.22831 -44.51018,-4.88729 53.4246,-106.28228 -17.52257,-154.236376 -2.29051,-1.5509 -4.54192,-2.9193413 -6.74771,-4.1444221 C 490.78239,7.5593151 488.27033,6.7773486 485.58883,6.0800952 402.72971,-15.541278 391.24458,124.95855 358.18043,94.755096 304.74931,45.947354 271.02374,57.351032 253.85632,76.861096 271.85458,109.23451 315.661,182.30276 361.28223,216.18798 Z"
         id="path2" /><path
         class="cls-4"
         d="M 210.0662,580.02395 C 228.77149,523.98954 251.27257,461.03472 276.70929,398.15158 210.45066,360.90391 108.53762,234.94214 69.572883,184.87673 62.61664,194.66435 57.862935,208.31618 56.279453,226.98563 47.782084,327.26632 151.23625,401.50752 130.61188,415.06812 103.33103,433.00774 49.03323,371.97525 27.633414,410.75427 58.651418,450.60198 121.83431,522.60155 210.0662,580.02395 Z"
         id="path3" /><path
         class="cls-3"
         d="m 496.71556,363.75157 c -52.38198,-18.68248 54.73766,-68.78699 89.52214,-121.94116 4.45069,-6.79659 9.05126,-15.58068 10.29915,-24.78834 -111.98412,28.92625 -192.38005,12.97413 -220.60904,5.20008 -24.13019,48.89246 -51.99426,110.5049 -81.05409,184.79172 30.26536,12.94154 153.84213,60.74576 328.39009,60.99338 29.34655,-76.43722 -76.83473,-86.53111 -126.54825,-104.25568 z"
         id="path4" /><path
         class="cls-4"
         d="m 230.3061,590.11132 c 30.78015,9.59212 132.76813,38.24468 241.08353,33.93083 14.55109,-39.39808 -39.85097,-43.24275 -44.28212,-74.84071 -3.43087,-24.44949 143.16829,20.54617 190.33717,-68.3569 2.38499,-4.49631 4.24542,-8.73848 5.81913,-12.83729 -174.54796,-0.24762 -298.12473,-48.05184 -328.39009,-60.99338 -21.23691,54.28802 -43.08309,115.21624 -64.56762,183.09745 z"
         id="path5" /><path
         class="cls-1"
         d="m 230.3061,590.11132 c -13.83104,43.69238 -27.47635,90.36926 -40.72091,139.69832 -4.69831,17.48998 -9.34124,35.30578 -13.919,53.51257 102.80578,33.93735 197.4726,0.0782 200.68192,-41.88734 0.0261,-0.33233 -0.0358,-0.57996 -0.0163,-0.89926 2.44691,-44.44828 -64.17338,-19.80982 -62.59641,-46.53352 1.58348,-26.9192 116.30774,-0.1564 151.78621,-57.87204 2.72059,-4.42463 4.49305,-8.35401 5.86801,-12.0879 C 363.07423,628.356 261.08625,599.70344 230.3061,590.11132 Z"
         id="path6" /><path
         class="cls-1"
         d="m 27.633414,410.75427 c -1.49877,2.71734 -2.85092,5.85824 -4.004321,9.61167 -19.9238542,64.75335 120.960447,151.7406 101.792487,170.70329 -17.2782,17.08597 -39.795576,-21.96023 -67.561903,-5.83217 -3.043153,1.77246 -6.131921,4.00758 -9.302143,7.25926 -31.402472,32.1714 -0.491988,124.85398 88.603316,174.3264 -20.79053,69.81006 -41.489835,147.8047 -61.752542,229.37032 7.350485,-2.57397 16.147608,-5.15446 18.337114,-12.0879 3.287518,-13.51499 23.605618,-95.7518 56.594828,-207.31887 0,0 6.02114,-22.85297 17.04361,-60.50465 10.19163,-34.81706 24.6743,-82.30198 42.68234,-136.25767 C 121.83431,522.60155 58.651418,450.60198 27.633414,410.75427 Z"
         id="path7" /></g></g></svg>
