<?xml version="1.0" encoding="UTF-8" standalone="no"?>
<!-- Created with Inkscape (http://www.inkscape.org/) -->

<svg
   width="264.67535"
   height="87.734856"
   id="svg2"
   version="1.1"
   inkscape:version="1.4.3 (0d15f75042, 2025-12-25)"
   sodipodi:docname="logo.svg"
   xml:space="preserve"
   inkscape:export-filename="jmeter.png"
   inkscape:export-xdpi="193.67"
   inkscape:export-ydpi="193.67"
   xmlns:inkscape="http://www.inkscape.org/namespaces/inkscape"
   xmlns:sodipodi="http://sodipodi.sourceforge.net/DTD/sodipodi-0.dtd"
   xmlns:xlink="http://www.w3.org/1999/xlink"
   xmlns="http://www.w3.org/2000/svg"
   xmlns:svg="http://www.w3.org/2000/svg"
   xmlns:rdf="http://www.w3.org/1999/02/22-rdf-syntax-ns#"
   xmlns:cc="http://creativecommons.org/ns#"
   xmlns:dc="http://purl.org/dc/elements/1.1/"><title
     id="title3100">JMeter Logo</title><defs
     id="colors"><linearGradient
       id="Label.foreground"
       fallback="textText"
       gradientTransform="matrix(1.8370004,0,0,0.53870212,4.4674143,0)"
       x1="270.27343"
       y1="438.78119"
       x2="360.96591"
       y2="438.78119"
       gradientUnits="userSpaceOnUse"><stop
         offset="0"
         stop-color="#000000"
         id="stop1" /><stop
         offset="1"
         stop-color="#000000"
         id="stop2" /></linearGradient><linearGradient
       id="Label.disabledForeground"
       fallback="textInactiveText Button.disabledText"><stop
         offset="0"
         stop-color="#4d4d4d"
         id="stop3" /><stop
         offset="1"
         stop-color="#4d4d4d"
         id="stop4" /></linearGradient><style
       id="style1">
      .cls-1 {
        fill: #7c297d;
      }

      .cls-2 {
        fill: #f79a23;
      }

      .cls-3 {
        fill: #dd552c;
      }

      .cls-4 {
        fill: #d22128;
      }
    </style><linearGradient
       inkscape:collect="always"
       xlink:href="#Label.disabledForeground"
       id="linearGradient4"
       gradientTransform="scale(0.84422883,1.184513)"
       x1="765.65437"
       y1="123.16302"
       x2="786.9072"
       y2="123.16302"
       gradientUnits="userSpaceOnUse" /><linearGradient
       inkscape:collect="always"
       xlink:href="#Label.disabledForeground"
       id="linearGradient5"
       gradientTransform="scale(1.0135875,0.98659461)"
       x1="659.24653"
       y1="147.87045"
       x2="684.76284"
       y2="147.87045"
       gradientUnits="userSpaceOnUse" /></defs><defs
     id="defs4"><linearGradient
       inkscape:collect="always"
       xlink:href="#SVGID_5_"
       id="linearGradient9387"
       x1="580.10394"
       y1="215.96693"
       x2="634.46875"
       y2="215.96693"
       gradientUnits="userSpaceOnUse" /><linearGradient
       inkscape:collect="always"
       xlink:href="#SVGID_5_"
       id="linearGradient9389"
       x1="496.00687"
       y1="216.75172"
       x2="574.69977"
       y2="216.75172"
       gradientUnits="userSpaceOnUse" /><linearGradient
       inkscape:collect="always"
       xlink:href="#SVGID_5_"
       id="linearGradient9391"
       x1="433.14154"
       y1="208.23689"
       x2="491.82263"
       y2="208.23689"
       gradientUnits="userSpaceOnUse" /><linearGradient
       inkscape:collect="always"
       xlink:href="#SVGID_5_"
       id="linearGradient9393"
       x1="351.91241"
       y1="216.75172"
       x2="430.60532"
       y2="216.75172"
       gradientUnits="userSpaceOnUse" /><linearGradient
       inkscape:collect="always"
       xlink:href="#SVGID_5_"
       id="linearGradient9395"
       x1="225.43741"
       y1="203.29279"
       x2="344.31088"
       y2="203.29279"
       gradientUnits="userSpaceOnUse" /></defs><sodipodi:namedview
     id="base"
     pagecolor="#ffffff"
     bordercolor="#666666"
     borderopacity="1.0"
     inkscape:pageopacity="0.0"
     inkscape:pageshadow="2"
     inkscape:zoom="2.8976098"
     inkscape:cx="156.16319"
     inkscape:cy="28.12663"
     inkscape:document-units="px"
     inkscape:current-layer="layer1"
     showgrid="false"
     showguides="true"
     inkscape:guide-bbox="true"
     inkscape:window-width="1920"
     inkscape:window-height="1124"
     inkscape:window-x="0"
     inkscape:window-y="0"
     inkscape:window-maximized="1"
     fit-margin-top="0"
     fit-margin-left="0"
     fit-margin-right="0"
     fit-margin-bottom="0"
     inkscape:showpageshadow="2"
     inkscape:pagecheckerboard="0"
     inkscape:deskcolor="#d1d1d1" /><metadata
     id="metadata7"><rdf:RDF><cc:Work
         rdf:about=""><dc:format>image/svg+xml</dc:format><dc:type
           rdf:resource="http://purl.org/dc/dcmitype/StillImage" /><dc:title>JMeter Logo</dc:title></cc:Work></rdf:RDF></metadata><g
     inkscape:label="Ebene 1"
     inkscape:groupmode="layer"
     id="layer1"
     transform="translate(-429.39173,-212.32802)"><g
       id="g3347"
       transform="matrix(0.61056696,0,0,0.61056696,-671.81995,122.75139)" /><g
       id="g3349"
       transform="matrix(0.61056696,0,0,0.61056696,-671.81995,122.75139)" /><g
       id="g3351"
       transform="matrix(0.61056696,0,0,0.61056696,-671.81995,122.75139)" /><g
       id="g3353"
       transform="matrix(0.61056696,0,0,0.61056696,-671.81995,122.75139)" /><g
       id="g3355"
       transform="matrix(0.61056696,0,0,0.61056696,-671.81995,122.75139)" /><g
       id="g3357"
       transform="matrix(0.61056696,0,0,0.61056696,-671.81995,122.75139)" /><path
       id="path3343"
       d="m 467.14932,239.32927 v 1.20513 h -0.33717 v -1.20513 h -0.42459 v -0.28873 h 1.17387 v 0.28873 z"
       inkscape:connector-curvature="0"
       style="fill:#b0afb0;stroke-width:0.997389" /><path
       id="path3345"
       d="m 469.13491,239.59289 -0.39962,0.81597 h -0.1998 l -0.39962,-0.81597 v 0.94151 h -0.32468 v -1.49386 h 0.44956 l 0.38713,0.81597 0.38713,-0.81597 h 0.44956 v 1.49386 h -0.32468 v -0.94151 z"
       inkscape:connector-curvature="0"
       style="fill:#b0afb0;stroke-width:0.997389" /><path
       inkscape:connector-curvature="0"
       id="path3718"
       style="font-style:normal;font-variant:normal;font-weight:bold;font-stretch:normal;font-size:160.722px;line-height:125%;font-family:'Droid Sans';-inkscape-font-specification:'Droid Sans Bold';letter-spacing:0px;word-spacing:0px;fill:#d22128;fill-opacity:1;stroke:#d22128;stroke-width:1.22556;stroke-linejoin:round;stroke-miterlimit:4;stroke-dasharray:none;stroke-opacity:1"
       d="m 480.77425,297.79747 c -1.38561,-10e-6 -2.60069,-0.075 -3.64525,-0.225 -1.04454,-0.12859 -1.9292,-0.28931 -2.654,-0.48216 v -8.29303 c 0.78874,0.17143 1.62012,0.32143 2.49412,0.45001 0.85269,0.12857 1.79065,0.19285 2.81388,0.19286 0.9806,-1e-5 1.88658,-0.10715 2.71795,-0.32144 0.8527,-0.21429 1.58813,-0.5893 2.20634,-1.12502 0.63952,-0.5143 1.12981,-1.21074 1.47089,-2.08933 0.36239,-0.87859 0.54359,-1.98218 0.54359,-3.31079 v -45.6117 h 9.91254 v 45.29027 c -2e-5,2.70006 -0.39439,5.0251 -1.18312,6.97515 -0.76743,1.95003 -1.8546,3.55721 -3.26154,4.82153 -1.38562,1.28573 -3.04838,2.22861 -4.98823,2.82864 -1.93988,0.59999 -4.08227,0.9 -6.42717,0.90001" /><path
       fill="url(#Label.foreground)"
       stroke="url(#Label.foreground)"
       style="font-style:normal;font-variant:normal;font-weight:bold;font-stretch:normal;font-size:160.722px;line-height:125%;font-family:'Droid Sans';-inkscape-font-specification:'Droid Sans Bold';letter-spacing:0px;word-spacing:0px;fill:url(#Label.foreground);fill-opacity:1;stroke:url(#Label.foreground);stroke-width:1.22556;stroke-linejoin:round;stroke-miterlimit:4;stroke-dasharray:none;stroke-opacity:1"
       d="m 501.9462,236.98674 v 46.98748 h 8.86209 v -21.86178 c -4e-5,-0.6 -0.0169,-1.27231 -0.0382,-2.02235 -10e-6,-0.74999 -0.021,-1.528 -0.0637,-2.34233 -0.0214,-0.81427 -0.0465,-1.63457 -0.0891,-2.47033 -0.0214,-0.8357 -0.0593,-1.65183 -0.10186,-2.44473 -0.0852,-1.84287 -0.19044,-3.74994 -0.31832,-5.72144 h 0.29285 l 10.26271,36.86296 h 9.104 l 11.06488,-36.79896 h 0.25466 c -0.064,1.95007 -0.13123,3.81903 -0.21646,5.61904 -0.0214,0.77148 -0.0593,1.56646 -0.10186,2.38073 -0.0214,0.81433 -0.0424,1.61349 -0.0637,2.40633 -0.0214,0.79291 -0.0424,1.54561 -0.0637,2.25274 -4e-5,0.70718 -4e-5,1.33722 0,1.89435 v 22.24577 h 9.24408 v -46.98748 h -13.49686 l -10.74655,35.92859 h -0.19099 L 515.443,236.98674 Z m 92.80997,3.40471 -2.81397,7.57739 -5.36053,3.2895 v 4.14709 h 4.66022 v 17.31791 c 0,2.31434 0.27339,4.24255 0.82764,5.78544 0.57557,1.52146 1.36225,2.73925 2.34285,3.66069 0.98059,0.90002 2.14581,1.54285 3.48882,1.90715 1.34297,0.36429 2.78573,0.53758 4.3419,0.53758 1.59878,0 3.07531,-0.15215 4.41832,-0.47358 1.36428,-0.30001 2.49574,-0.69333 3.41241,-1.16477 v -7.29579 c -0.89535,0.32144 -1.77446,0.59209 -2.64844,0.80637 -0.85271,0.2143 -1.76558,0.32 -2.72484,0.31999 -1.10851,10e-6 -2.0045,-0.33406 -2.68663,-0.99837 -0.68218,-0.66429 -1.01865,-1.69182 -1.01863,-3.08471 v -17.31791 h 8.69655 v -7.3598 h -8.69655 v -7.65418 z m -25.03284,6.9758 c -2.43018,4e-5 -4.64275,0.39753 -6.64657,1.19037 -1.98251,0.7929 -3.69037,1.97258 -5.11862,3.5583 -1.40694,1.56435 -2.50908,3.53067 -3.29781,5.88783 -0.78874,2.35722 -1.18416,5.10572 -1.18416,8.25577 0,3.10722 0.43333,5.82624 1.28603,8.14057 0.87399,2.29291 2.08543,4.19999 3.64159,5.72144 1.55615,1.50004 3.41122,2.61629 5.56427,3.36631 2.15303,0.75001 4.50867,1.12636 7.06675,1.12636 1.32165,0 2.53309,-0.0464 3.64161,-0.15359 1.10847,-0.0857 2.14752,-0.2337 3.10682,-0.44799 0.95925,-0.21429 1.85939,-0.48077 2.71211,-0.78078 0.87398,-0.32143 1.74478,-0.70195 2.5975,-1.15196 v -7.59019 c -0.93799,0.47145 -1.85501,0.89008 -2.7503,1.25436 -0.89536,0.34287 -1.80822,0.63467 -2.72483,0.87038 -0.91668,0.23573 -1.85887,0.42181 -2.83944,0.55038 -0.9593,0.10716 -1.98147,0.15361 -3.06862,0.1536 -1.30038,1e-5 -2.4656,-0.19442 -3.48882,-0.60158 -1.00192,-0.40715 -1.87273,-0.99073 -2.5975,-1.74075 -0.70349,-0.77144 -1.25026,-1.71024 -1.65528,-2.80313 -0.38372,-1.11429 -0.59402,-2.35322 -0.63664,-3.72469 h 21.7987 v -4.76147 c -4e-5,-2.61431 -0.35755,-4.92305 -1.0823,-6.9374 -0.7035,-2.03573 -1.72567,-3.75254 -3.06863,-5.14546 -1.32169,-1.39285 -2.94543,-2.44151 -4.86396,-3.14871 -1.89726,-0.72855 -4.02571,-1.08793 -6.3919,-1.08797 z m 58.71131,0 c -2.43018,4e-5 -4.64275,0.39753 -6.64656,1.19037 -1.98251,0.7929 -3.69037,1.97258 -5.11862,3.5583 -1.40695,1.56435 -2.50908,3.53067 -3.29781,5.88783 -0.78875,2.35722 -1.18416,5.10572 -1.18416,8.25577 0,3.10722 0.43332,5.82624 1.28601,8.14057 0.87401,2.29291 2.08544,4.19999 3.64161,5.72144 1.55615,1.50004 3.41122,2.61629 5.56427,3.36631 2.15303,0.75001 4.50866,1.12636 7.06675,1.12636 1.32165,0 2.53309,-0.0464 3.6416,-0.15359 1.10848,-0.0857 2.14753,-0.2337 3.10683,-0.44799 0.95925,-0.21429 1.85939,-0.48077 2.71211,-0.78078 0.87397,-0.32143 1.74478,-0.70195 2.5975,-1.15196 v -7.59019 c -0.93799,0.47145 -1.85501,0.89008 -2.7503,1.25436 -0.89536,0.34287 -1.80822,0.63467 -2.72484,0.87038 -0.91667,0.23573 -1.85886,0.42181 -2.83943,0.55038 -0.9593,0.10716 -1.98147,0.15361 -3.06862,0.1536 -1.30038,1e-5 -2.4656,-0.19442 -3.48882,-0.60158 -1.00193,-0.40715 -1.86,-0.99073 -2.58477,-1.74075 -0.70348,-0.77144 -1.263,-1.71024 -1.66801,-2.80313 -0.38372,-1.11429 -0.59402,-2.35322 -0.63664,-3.72469 h 21.7987 v -4.76147 c -4e-5,-2.61431 -0.35755,-4.92305 -1.0823,-6.9374 -0.70351,-2.03573 -1.72567,-3.75254 -3.06863,-5.14546 -1.32169,-1.39285 -2.94544,-2.44151 -4.86396,-3.14871 -1.89726,-0.72855 -4.02571,-1.08793 -6.39191,-1.08797 z m 36.65797,0 c -1.19378,4e-5 -2.25801,0.14802 -3.19596,0.44799 -0.91666,0.27861 -1.74955,0.68028 -2.49563,1.21597 -0.72481,0.51433 -1.37673,1.15716 -1.9736,1.90714 -0.59691,0.75005 -1.15641,1.57452 -1.66801,2.49593 h -0.48385 l -1.43882,-5.38865 h -7.38507 v 35.92859 h 9.75339 v -18.29068 c -2e-5,-1.69288 0.20613,-3.11789 0.61118,-4.27508 0.42632,-1.17858 1.01101,-2.12154 1.75714,-2.82872 0.7674,-0.72856 1.68027,-1.2529 2.72483,-1.57436 1.06584,-0.32141 2.21834,-0.48636 3.47608,-0.48639 0.21315,5e-5 0.48239,0.017 0.80217,0.0384 0.31973,3e-5 0.63518,0.0212 0.95496,0.064 0.34105,0.0215 0.66923,0.0596 0.96771,0.1024 0.2984,0.0429 0.52973,0.0852 0.70031,0.12799 v -9.20294 c -0.12794,-0.0428 -0.31721,-0.0681 -0.57299,-0.0896 -0.23451,-0.0428 -0.50376,-0.0809 -0.80216,-0.1024 -0.27716,-0.0428 -0.57158,-0.064 -0.89131,-0.064 -0.29846,-0.0214 -0.58458,-0.0256 -0.84037,-0.0256 z m -95.30562,6.97581 c 1.02321,2e-5 1.9192,0.19029 2.68664,0.57598 0.7674,0.38575 1.41103,0.91425 1.92266,1.59995 0.51159,0.66433 0.89013,1.45932 1.14597,2.38074 0.25578,0.92147 0.39883,1.92785 0.42018,3.02071 h -12.44002 c 0.17052,-2.61431 0.8183,-4.52556 1.94812,-5.74704 1.15113,-1.22142 2.58973,-1.83032 4.31645,-1.83034 z m 58.71132,0 c 1.0232,2e-5 1.9192,0.19029 2.68663,0.57598 0.76741,0.38575 1.41104,0.91425 1.92267,1.59995 0.51159,0.66433 0.89013,1.45932 1.14596,2.38074 0.25578,0.92147 0.39883,1.92785 0.42018,3.02071 h -12.44002 c 0.17053,-2.61431 0.8183,-4.52556 1.94813,-5.74704 1.15112,-1.22142 2.58973,-1.83032 4.31645,-1.83034 z"
       id="path3720"
       inkscape:connector-curvature="0" /><g
       style="font-style:normal;font-variant:normal;font-weight:bold;font-stretch:normal;font-size:35.2646px;line-height:125%;font-family:sans-serif;-inkscape-font-specification:'Sans Bold';letter-spacing:0px;word-spacing:0px;fill:#4d4d4d;fill-opacity:1;stroke:none"
       id="text3756"
       transform="matrix(0.40745222,0,0,0.40958848,409.88746,177.21243)"><path
         d="m 658.02758,171.06244 h -5.32069 V 150.3307 h -6.31939 v -4.44251 h 17.94225 v 4.44251 h -6.30217 v 20.73174"
         fill="url(#Label.disabledForeground)"
         style="font-family:'Droid Sans';-inkscape-font-specification:'Droid Sans Bold';fill:url(#linearGradient4)"
         id="path3879"
         inkscape:connector-curvature="0" /><path
         d="m 678.32884,171.06244 -5.52732,-19.75025 h -0.15497 c 0.0689,1.05612 0.12627,2.07778 0.17219,3.06499 0.0229,0.42475 0.0402,0.86097 0.0517,1.30865 0.023,0.44771 0.0402,0.88966 0.0517,1.32586 0.023,0.43623 0.0344,0.85523 0.0344,1.25699 0.0115,0.4018 0.0172,0.76339 0.0172,1.08481 v 11.70895 h -4.76967 v -25.17425 h 7.26643 l 5.44122,19.2509 h 0.10332 l 5.7856,-19.2509 h 7.26644 v 25.17425 h -4.97631 v -11.91558 c -2e-5,-0.29845 -2e-5,-0.6371 0,-1.01593 0.0115,-0.3788 0.0229,-0.78058 0.0344,-1.20533 0.0115,-0.42472 0.0229,-0.8552 0.0344,-1.29143 0.0229,-0.4362 0.0401,-0.86094 0.0517,-1.27421 0.0459,-0.96425 0.0861,-1.96869 0.12053,-3.01333 h -0.13775 l -5.95779,19.71581 h -4.90743"
         fill="url(#Label.disabledForeground)"
         style="font-family:'Droid Sans';-inkscape-font-specification:'Droid Sans Bold';fill:url(#linearGradient5)"
         id="path3881"
         inkscape:connector-curvature="0" /></g><g
       id="g8126"
       transform="matrix(0.14202219,0,0,0.14276681,453.55344,190.16516)"><g
         id="g8128"><path
           style="fill:#d22128"
           inkscape:connector-curvature="0"
           d="m 232.6,277.3 49.3,-117.8 h 9.5 l 49.3,117.8 H 328.3 L 313,240.5 h -53 l -15.1,36.8 z m 54.1,-104.2 -24.2,58.2 h 47.8 z"
           id="path8130" /><path
           style="fill:#d22128"
           inkscape:connector-curvature="0"
           d="M 353.3,277.3 V 159.5 h 48.8 c 20.2,0 34.8,18.7 34.8,37 0,19.2 -13.6,37.3 -33.8,37.3 h -38.3 v 43.5 z m 11.5,-53.8 h 37.7 c 13.9,0 22.9,-12.8 22.9,-27 0,-14.8 -10.9,-26.7 -23.9,-26.7 h -36.7 z"
           id="path8132" /><path
           style="fill:#d22128"
           inkscape:connector-curvature="0"
           d="m 430.5,277.3 49.3,-117.8 h 9.5 l 49.3,117.8 H 526 l -15.3,-36.8 h -52.9 l -15.1,36.8 z m 54.1,-104.2 -24.2,58.2 h 47.8 z"
           id="path8134" /><path
           style="fill:#d22128"
           inkscape:connector-curvature="0"
           d="m 594.2,158.8 c 20.9,0 36.2,10.6 43.5,25.7 l -9.3,5.6 c -7.5,-15.6 -22.1,-20.9 -34.8,-20.9 -28.2,0 -43.6,25.2 -43.6,48.9 0,26 19.1,49.6 44.1,49.6 13.3,0 28.9,-6.6 36.3,-21.9 l 9.6,5 c -7.6,17.6 -28.5,27.4 -46.6,27.4 -32.3,0 -55.1,-30.9 -55.1,-60.7 0,-28.3 20.4,-58.7 55.9,-58.7 z"
           id="path8136" /><path
           style="fill:#d22128"
           inkscape:connector-curvature="0"
           d="m 749.1,159.5 v 117.8 h -11.6 v -55.1 h -69.8 v 55.1 H 656.3 V 159.5 h 11.4 v 52.4 h 69.8 v -52.4 z"
           id="path8138" /><path
           style="fill:#d22128"
           inkscape:connector-curvature="0"
           d="m 854.8,267 v 10.3 H 775.7 V 159.5 h 77.6 v 10.3 h -66.2 v 42.5 h 57.7 v 9.8 H 787.1 V 267 Z"
           id="path8140" /></g></g><g
       id="g8326"
       transform="translate(132.42046,222.12974)" /><g
       id="g8328"
       transform="translate(132.42046,222.12974)" /><g
       id="g8330"
       transform="translate(132.42046,222.12974)" /><g
       id="g8332"
       transform="translate(132.42046,222.12974)" /><g
       id="g8334"
       transform="translate(132.42046,222.12974)" /><g
       id="g8336"
       transform="translate(132.42046,222.12974)" /><g
       id="g4"
       transform="matrix(0.08794689,0,0,0.08840799,427.48387,211.99145)"><path
         class="cls-3"
         d="M 276.70929,398.15158 C 302.23724,335.02733 330.72037,272.0269 361.28223,216.18798 315.661,182.30276 271.85458,109.23451 253.85632,76.861096 247.39206,84.205064 243.19551,92.663335 241.29273,99.544641 224.33709,160.7661 284.69512,234.69452 236.07962,207.68409 195.57375,185.17649 104.36388,135.88653 69.572883,184.87673 108.53762,234.94214 210.45066,360.90391 276.70929,398.15158 Z"
         id="path1" /><path
         class="cls-2"
         d="m 361.28223,216.18798 c 29.61372,-54.10557 61.17258,-101.49274 93.89136,-135.632093 0,0 -32.63406,47.237293 -79.24578,141.666263 28.22899,7.77405 108.62492,23.72617 220.60904,-5.20008 2.75317,-20.35067 -10.92799,-42.73447 -79.10569,-50.22831 -44.51018,-4.88729 53.4246,-106.28228 -17.52257,-154.236376 -2.29051,-1.5509 -4.54192,-2.9193413 -6.74771,-4.1444221 C 490.78239,7.5593151 488.27033,6.7773486 485.58883,6.0800952 402.72971,-15.541278 391.24458,124.95855 358.18043,94.755096 304.74931,45.947354 271.02374,57.351032 253.85632,76.861096 271.85458,109.23451 315.661,182.30276 361.28223,216.18798 Z"
         id="path2" /><path
         class="cls-4"
         d="M 210.0662,580.02395 C 228.77149,523.98954 251.27257,461.03472 276.70929,398.15158 210.45066,360.90391 108.53762,234.94214 69.572883,184.87673 62.61664,194.66435 57.862935,208.31618 56.279453,226.98563 47.782084,327.26632 151.23625,401.50752 130.61188,415.06812 103.33103,433.00774 49.03323,371.97525 27.633414,410.75427 58.651418,450.60198 121.83431,522.60155 210.0662,580.02395 Z"
         id="path3" /><path
         class="cls-3"
         d="m 496.71556,363.75157 c -52.38198,-18.68248 54.73766,-68.78699 89.52214,-121.94116 4.45069,-6.79659 9.05126,-15.58068 10.29915,-24.78834 -111.98412,28.92625 -192.38005,12.97413 -220.60904,5.20008 -24.13019,48.89246 -51.99426,110.5049 -81.05409,184.79172 30.26536,12.94154 153.84213,60.74576 328.39009,60.99338 29.34655,-76.43722 -76.83473,-86.53111 -126.54825,-104.25568 z"
         id="path4" /><path
         class="cls-4"
         d="m 230.3061,590.11132 c 30.78015,9.59212 132.76813,38.24468 241.08353,33.93083 14.55109,-39.39808 -39.85097,-43.24275 -44.28212,-74.84071 -3.43087,-24.44949 143.16829,20.54617 190.33717,-68.3569 2.38499,-4.49631 4.24542,-8.73848 5.81913,-12.83729 -174.54796,-0.24762 -298.12473,-48.05184 -328.39009,-60.99338 -21.23691,54.28802 -43.08309,115.21624 -64.56762,183.09745 z"
         id="path5" /><path
         class="cls-1"
         d="m 230.3061,590.11132 c -13.83104,43.69238 -27.47635,90.36926 -40.72091,139.69832 -4.69831,17.48998 -9.34124,35.30578 -13.919,53.51257 102.80578,33.93735 197.4726,0.0782 200.68192,-41.88734 0.0261,-0.33233 -0.0358,-0.57996 -0.0163,-0.89926 2.44691,-44.44828 -64.17338,-19.80982 -62.59641,-46.53352 1.58348,-26.9192 116.30774,-0.1564 151.78621,-57.87204 2.72059,-4.42463 4.49305,-8.35401 5.86801,-12.0879 C 363.07423,628.356 261.08625,599.70344 230.3061,590.11132 Z"
         id="path6" /><path
         class="cls-1"
         d="m 27.633414,410.75427 c -1.49877,2.71734 -2.85092,5.85824 -4.004321,9.61167 -19.9238542,64.75335 120.960447,151.7406 101.792487,170.70329 -17.2782,17.08597 -39.795576,-21.96023 -67.561903,-5.83217 -3.043153,1.77246 -6.131921,4.00758 -9.302143,7.25926 -31.402472,32.1714 -0.491988,124.85398 88.603316,174.3264 -20.79053,69.81006 -41.489835,147.8047 -61.752542,229.37032 7.350485,-2.57397 16.147608,-5.15446 18.337114,-12.0879 3.287518,-13.51499 23.605618,-95.7518 56.594828,-207.31887 0,0 6.02114,-22.85297 17.04361,-60.50465 10.19163,-34.81706 24.6743,-82.30198 42.68234,-136.25767 C 121.83431,522.60155 58.651418,450.60198 27.633414,410.75427 Z"
         id="path7" /></g></g></svg>
