<?xml version="1.0" encoding="UTF-8" standalone="no"?>
<!-- Generator: Adobe Illustrator 19.0.0, SVG Export Plug-In . SVG Version: 6.00 Build 0)  -->

<svg
   xmlns:dc="http://purl.org/dc/elements/1.1/"
   xmlns:cc="http://creativecommons.org/ns#"
   xmlns:rdf="http://www.w3.org/1999/02/22-rdf-syntax-ns#"
   xmlns:svg="http://www.w3.org/2000/svg"
   xmlns="http://www.w3.org/2000/svg"
   xmlns:sodipodi="http://sodipodi.sourceforge.net/DTD/sodipodi-0.dtd"
   xmlns:inkscape="http://www.inkscape.org/namespaces/inkscape"
   version="1.1"
   id="Layer_2"
   x="0px"
   y="0px"
   viewBox="0 0 7127.6 2890.0081"
   enable-background="new 0 0 7127.6 2890"
   xml:space="preserve"
   inkscape:version="0.91 r13725"
   sodipodi:docname="asf-logo.svg"
   width="7127.6001"
   height="2890.0081"><metadata
     id="metadata4570"><rdf:RDF><cc:Work
         rdf:about=""><dc:format>image/svg+xml</dc:format><dc:type
           rdf:resource="http://purl.org/dc/dcmitype/StillImage" /><dc:title></dc:title></cc:Work></rdf:RDF></metadata><defs
     id="defs4568" /><sodipodi:namedview
     pagecolor="#ffffff"
     bordercolor="#666666"
     borderopacity="1"
     objecttolerance="10"
     gridtolerance="10"
     guidetolerance="10"
     inkscape:pageopacity="0"
     inkscape:pageshadow="2"
     inkscape:window-width="3200"
     inkscape:window-height="1671"
     id="namedview4566"
     showgrid="false"
     inkscape:zoom="0.33924462"
     inkscape:cx="3563.8"
     inkscape:cy="1445"
     inkscape:window-x="0"
     inkscape:window-y="55"
     inkscape:window-maximized="1"
     inkscape:current-layer="Layer_2"
     inkscape:showpageshadow="true"
     showborder="true"
     fit-margin-top="0"
     fit-margin-left="0"
     fit-margin-right="0"
     fit-margin-bottom="0" /><path
     d="m 7104.7,847.80813 c 15.3,15.3 22.9,33.7 22.9,55.2 0,21.5 -7.6,39.9 -22.9,55.4 -15.3,15.4 -33.8,23.1 -55.6,23.1 -21.8,0 -40.2,-7.6 -55.4,-22.9 -15.1,-15.3 -22.7,-33.7 -22.7,-55.2 0,-21.5 7.6,-39.9 22.9,-55.4 15.3,-15.4 33.7,-23.1 55.4,-23.1 21.6,0 40.1,7.6 55.4,22.9 z m -6.6,104.1 c 13.3,-13.6 20,-29.8 20,-48.7 0,-18.9 -6.6,-35 -19.8,-48.5 -13.2,-13.4 -29.4,-20.1 -48.6,-20.1 -19.2,0 -35.4,6.7 -48.7,20.2 -13.3,13.5 -19.9,29.7 -19.9,48.7 0,19 6.6,35.2 19.7,48.6 13.1,13.4 29.3,20.1 48.5,20.1 19.2,0 35.4,-6.8 48.8,-20.3 z m -11,-63.8 c 0,14 -6.1,22.8 -18.4,26.4 l 22.5,30.5 -18.2,0 -20.3,-28.3 -18.6,0 0,28.3 -14.7,0 0,-84.6 31.8,0 c 12.8,0 22,2.2 27.6,6.6 5.6,4.4 8.3,11.4 8.3,21.1 z m -18.9,11.9 c 3,-2.4 4.4,-6.5 4.4,-12 0,-5.5 -1.5,-9.4 -4.5,-11.6 -3,-2.2 -8.4,-3.2 -16,-3.2 l -18,0 0,30.5 17.5,0 c 8.1,-0.1 13.7,-1.3 16.6,-3.7 z"
     id="path4374"
     inkscape:connector-curvature="0"
     style="fill:#6d6e71" /><path
     d="m 1803.6,499.80813 0,155.4 -20,0 0,-155.4 -56.8,0 0,-19.2 133.9,0 0,19.2 -57.1,0 z"
     id="path4376"
     inkscape:connector-curvature="0"
     style="fill:#6d6e71" /><path
     d="m 2082.2,655.20813 0,-76.9 -105.2,0 0,76.9 -20,0 0,-174.7 20,0 0,78.9 105.2,0 0,-78.9 20,0 0,174.7 -20,0 z"
     id="path4378"
     inkscape:connector-curvature="0"
     style="fill:#6d6e71" /><path
     d="m 2241.4,499.80813 0,57.4 88.1,0 0,19.2 -88.1,0 0,59.8 101.8,0 0,19 -121.8,0 0,-174.7 118.6,0 0,19.2 -98.6,0 z"
     id="path4380"
     inkscape:connector-curvature="0"
     style="fill:#6d6e71" /><path
     d="m 1574.5,1852.4081 417.3,-997.59997 80.1,0 417.3,997.59997 -105.4,0 -129.3,-311.9 -448.2,0 -127.9,311.9 -103.9,0 z m 458.1,-882.39997 -205.1,493.19997 404.7,0 -199.6,-493.19997 z"
     id="path4382"
     inkscape:connector-curvature="0"
     style="fill:#d22128" /><path
     d="m 2596.9,1852.4081 0,-997.59997 413.1,0 c 171.4,0 295.1,158.79997 295.1,313.29997 0,163 -115.2,316.1 -286.6,316.1 l -324.6,0 0,368.1 -97,0 z m 97,-455.3 318.9,0 c 118,0 193.9,-108.2 193.9,-229 0,-125.1 -92.7,-226.19997 -202.3,-226.19997 l -310.5,0 0,455.19997 z"
     id="path4384"
     inkscape:connector-curvature="0"
     style="fill:#d22128" /><path
     d="m 3250.5,1852.4081 417.3,-997.59997 80.1,0 417.3,997.59997 -105.4,0 -129.3,-311.9 -448.2,0 -127.9,311.9 -103.9,0 z m 458.1,-882.39997 -205.1,493.19997 404.7,0 -199.6,-493.19997 z"
     id="path4386"
     inkscape:connector-curvature="0"
     style="fill:#d22128" /><path
     d="m 4637.3,849.10813 c 177,0 306.3,89.9 368.1,217.79997 l -78.7,47.8 c -63.2,-132.09997 -186.9,-176.99997 -295.1,-176.99997 -238.9,0 -369.5,213.59997 -369.5,414.49997 0,220.6 161.6,420.1 373.7,420.1 112.4,0 244.5,-56.2 307.7,-185.5 l 81.5,42.1 c -64.6,148.9 -241.7,231.8 -394.8,231.8 -274,0 -466.5,-261.3 -466.5,-514.2 0.1,-240.2 172.9,-497.39997 473.6,-497.39997 z"
     id="path4388"
     inkscape:connector-curvature="0"
     style="fill:#d22128" /><path
     d="m 5949.1,854.80813 0,997.59997 -98.4,0 0,-466.5 -591.5,0 0,466.5 -96.9,0 0,-997.59997 96.9,0 0,443.99997 591.5,0 0,-443.99997 98.4,0 z"
     id="path4390"
     inkscape:connector-curvature="0"
     style="fill:#d22128" /><path
     d="m 6844.6,1765.2081 0,87.1 -670.2,0 0,-997.49997 657.6,0 0,87.1 -560.6,0 0,359.69997 489,0 0,82.9 -489,0 0,380.8 573.2,0 z"
     id="path4392"
     inkscape:connector-curvature="0"
     style="fill:#d22128" /><path
     d="m 1667.6,2063.6081 c 11.8,3.5 22.2,8.3 31,14.2 l -10.3,22.6 c -9,-6 -18.6,-10.4 -28.9,-13.4 -10.2,-2.9 -20,-4.4 -29.2,-4.4 -13.6,0 -24.5,2.4 -32.6,7.3 -8.1,4.9 -12.2,11.8 -12.2,20.7 0,7.6 2.3,14 6.8,19 4.5,5 10.2,8.9 17,11.7 6.8,2.8 16.1,6 28,9.6 14.4,4.6 26,8.9 34.7,12.9 8.8,4 16.3,9.9 22.5,17.8 6.2,7.8 9.3,18.2 9.3,31 0,11.7 -3.2,21.8 -9.5,30.6 -6.3,8.7 -15.3,15.5 -26.8,20.3 -11.6,4.8 -24.9,7.2 -40,7.2 -15.1,0 -29.7,-2.9 -43.9,-8.7 -14.2,-5.8 -26.4,-13.6 -36.6,-23.4 l 10.7,-21.6 c 9.6,9.4 20.7,16.7 33.3,21.9 12.6,5.2 24.8,7.8 36.8,7.8 15.3,0 27.3,-3 36.1,-8.9 8.8,-5.9 13.2,-13.9 13.2,-23.9 0,-7.8 -2.3,-14.3 -6.9,-19.4 -4.6,-5.1 -10.3,-9 -17.1,-11.9 -6.8,-2.8 -16.1,-6 -28,-9.6 -14.2,-4.2 -25.7,-8.3 -34.6,-12.2 -8.9,-3.9 -16.4,-9.7 -22.5,-17.5 -6.1,-7.7 -9.2,-17.9 -9.2,-30.6 0,-10.9 3,-20.4 9,-28.6 6,-8.2 14.6,-14.6 25.6,-19.1 11.1,-4.5 23.8,-6.8 38.2,-6.8 12.3,0.1 24.2,1.9 36.1,5.4 z"
     id="path4394"
     inkscape:connector-curvature="0"
     style="fill:#6d6e71" /><path
     d="m 1980.1,2072.8081 c 16.8,9.4 30.2,22.3 40,38.4 9.8,16.2 14.8,33.9 14.8,53.3 0,19.5 -4.9,37.4 -14.8,53.6 -9.8,16.3 -23.2,29.1 -40,38.6 -16.8,9.5 -35.3,14.3 -55.2,14.3 -20.3,0 -38.8,-4.7 -55.7,-14.3 -16.8,-9.5 -30.2,-22.4 -40,-38.6 -9.8,-16.3 -14.8,-34.1 -14.8,-53.6 0,-19.5 4.9,-37.3 14.8,-53.5 9.8,-16.2 23.2,-29 40,-38.3 16.8,-9.4 35.4,-14 55.7,-14 19.9,-0.1 38.3,4.6 55.2,14.1 z m -98.2,19.9 c -13.1,7.4 -23.6,17.5 -31.4,30.1 -7.8,12.6 -11.8,26.5 -11.8,41.7 0,15.3 3.9,29.3 11.8,42 7.8,12.7 18.3,22.8 31.4,30.2 13.1,7.4 27.4,11.1 42.9,11.1 15.5,0 29.7,-3.7 42.7,-11.1 13,-7.4 23.3,-17.4 31.1,-30.2 7.7,-12.7 11.6,-26.7 11.6,-42 0,-15.3 -3.9,-29.2 -11.6,-41.8 -7.7,-12.6 -18.1,-22.6 -31.1,-30 -13,-7.4 -27.2,-11.2 -42.6,-11.2 -15.5,0 -29.8,3.7 -43,11.2 z"
     id="path4396"
     inkscape:connector-curvature="0"
     style="fill:#6d6e71" /><path
     d="m 2186.5,2082.4081 0,74 98.4,0 0,23.2 -98.4,0 0,90.2 -24.1,0 0,-210.6 133.8,0 0,23.2 -109.7,0 z"
     id="path4398"
     inkscape:connector-curvature="0"
     style="fill:#6d6e71" /><path
     d="m 2491.6,2082.4081 0,187.4 -24.1,0 0,-187.4 -68.4,0 0,-23.2 161.4,0 0,23.2 -68.9,0 z"
     id="path4400"
     inkscape:connector-curvature="0"
     style="fill:#6d6e71" /><path
     d="m 2871.8,2269.8081 -56.8,-177.4 -57.6,177.4 -24.5,0 -70.5,-210.6 25.9,0 57.9,182.7 57.1,-182.4 24.1,-0.3 57.7,182.7 57.1,-182.7 25,0 -70.6,210.6 -24.8,0 z"
     id="path4402"
     inkscape:connector-curvature="0"
     style="fill:#6d6e71" /><path
     d="m 3087.3,2216.6081 -23.5,53.2 -25.6,0 94.4,-210.6 25,0 94.1,210.6 -26.1,0 -23.5,-53.2 -114.8,0 z m 57.2,-130 -46.9,106.8 94.4,0 -47.5,-106.8 z"
     id="path4404"
     inkscape:connector-curvature="0"
     style="fill:#6d6e71" /><path
     d="m 3461.1,2202.7081 c -6,0.4 -10.7,0.6 -14.1,0.6 l -56,0 0,66.5 -24,0 0,-210.6 80,0 c 26.2,0 46.6,6.2 61.2,18.5 14.5,12.3 21.8,29.8 21.8,52.3 0,17.2 -4.1,31.7 -12.2,43.3 -8.1,11.6 -19.8,20 -35,25 l 49.2,71.5 -27.3,0 -43.6,-67.1 z m 30.2,-35.1 c 10.3,-8.4 15.5,-20.8 15.5,-37 0,-15.9 -5.2,-27.9 -15.5,-36 -10.3,-8.1 -25.1,-12.2 -44.3,-12.2 l -56,0 0,97.8 56,0 c 19.2,0 34,-4.2 44.3,-12.6 z"
     id="path4406"
     inkscape:connector-curvature="0"
     style="fill:#6d6e71" /><path
     d="m 3688.3,2082.4081 0,69.2 106.2,0 0,23.2 -106.2,0 0,72.1 122.8,0 0,22.9 -146.9,0 0,-210.6 142.9,0 0,23.2 -118.8,0 z"
     id="path4408"
     inkscape:connector-curvature="0"
     style="fill:#6d6e71" /><path
     d="m 4147,2082.4081 0,74 98.4,0 0,23.2 -98.4,0 0,90.2 -24.1,0 0,-210.6 133.8,0 0,23.2 -109.7,0 z"
     id="path4410"
     inkscape:connector-curvature="0"
     style="fill:#6d6e71" /><path
     d="m 4523.3,2072.8081 c 16.8,9.4 30.2,22.3 40,38.4 9.8,16.2 14.8,33.9 14.8,53.3 0,19.5 -4.9,37.4 -14.8,53.6 -9.8,16.3 -23.2,29.1 -40,38.6 -16.8,9.5 -35.3,14.3 -55.2,14.3 -20.3,0 -38.8,-4.7 -55.7,-14.3 -16.8,-9.5 -30.2,-22.4 -40,-38.6 -9.8,-16.3 -14.8,-34.1 -14.8,-53.6 0,-19.5 4.9,-37.3 14.8,-53.5 9.8,-16.2 23.2,-29 40,-38.3 16.8,-9.4 35.4,-14 55.7,-14 20,-0.1 38.4,4.6 55.2,14.1 z m -98.1,19.9 c -13.1,7.4 -23.6,17.5 -31.4,30.1 -7.8,12.6 -11.8,26.5 -11.8,41.7 0,15.3 3.9,29.3 11.8,42 7.8,12.7 18.3,22.8 31.4,30.2 13.1,7.4 27.4,11.1 42.9,11.1 15.5,0 29.7,-3.7 42.7,-11.1 13,-7.4 23.3,-17.4 31.1,-30.2 7.7,-12.7 11.6,-26.7 11.6,-42 0,-15.3 -3.9,-29.2 -11.6,-41.8 -7.7,-12.6 -18.1,-22.6 -31.1,-30 -13,-7.4 -27.2,-11.2 -42.6,-11.2 -15.6,0 -29.9,3.7 -43,11.2 z"
     id="path4412"
     inkscape:connector-curvature="0"
     style="fill:#6d6e71" /><path
     d="m 4854.7,2247.7081 c -15.7,15.5 -37.3,23.3 -64.8,23.3 -27.7,0 -49.4,-7.8 -65.1,-23.3 -15.7,-15.5 -23.6,-37 -23.6,-64.6 l 0,-124 24.1,0 0,124 c 0,20.3 5.8,36.1 17.3,47.5 11.6,11.4 27.3,17.1 47.3,17.1 20.1,0 35.8,-5.7 47.1,-17 11.4,-11.3 17,-27.2 17,-47.7 l 0,-124 24.1,0 0,124 c 0.1,27.7 -7.7,49.2 -23.4,64.7 z"
     id="path4414"
     inkscape:connector-curvature="0"
     style="fill:#6d6e71" /><path
     d="m 5169.5,2269.8081 -126.3,-169.1 0,169.1 -24.1,0 0,-210.6 25,0 126.3,169.3 0,-169.3 23.8,0 0,210.6 -24.7,0 z"
     id="path4416"
     inkscape:connector-curvature="0"
     style="fill:#6d6e71" /><path
     d="m 5478.4,2073.1081 c 16.4,9.3 29.4,21.9 38.9,37.9 9.6,16 14.3,33.9 14.3,53.5 0,19.6 -4.8,37.6 -14.3,53.6 -9.5,16.1 -22.6,28.7 -39.3,37.9 -16.6,9.2 -35.2,13.8 -55.5,13.8 l -84.3,0 0,-210.6 85.2,0 c 20.3,0 38.6,4.6 55,13.9 z m -116.1,173.8 61.4,0 c 15.5,0 29.6,-3.5 42.3,-10.6 12.7,-7.1 22.8,-16.9 30.2,-29.5 7.4,-12.5 11.1,-26.5 11.1,-42 0,-15.5 -3.8,-29.4 -11.3,-41.9 -7.5,-12.5 -17.7,-22.3 -30.6,-29.6 -12.8,-7.2 -27,-10.9 -42.6,-10.9 l -60.5,0 0,164.5 z"
     id="path4418"
     inkscape:connector-curvature="0"
     style="fill:#6d6e71" /><path
     d="m 5668.6,2216.6081 -23.5,53.2 -25.6,0 94.4,-210.6 25,0 94.1,210.6 -26,0 -23.5,-53.2 -114.9,0 z m 57.2,-130 -46.9,106.8 94.4,0 -47.5,-106.8 z"
     id="path4420"
     inkscape:connector-curvature="0"
     style="fill:#6d6e71" /><path
     d="m 5991,2082.4081 0,187.4 -24,0 0,-187.4 -68.4,0 0,-23.2 161.4,0 0,23.2 -69,0 z"
     id="path4422"
     inkscape:connector-curvature="0"
     style="fill:#6d6e71" /><path
     d="m 6175.9,2269.8081 0,-210.6 24.1,0 0,210.6 -24.1,0 z"
     id="path4424"
     inkscape:connector-curvature="0"
     style="fill:#6d6e71" /><path
     d="m 6493.7,2072.8081 c 16.8,9.4 30.2,22.3 40,38.4 9.8,16.2 14.8,33.9 14.8,53.3 0,19.5 -4.9,37.4 -14.8,53.6 -9.8,16.3 -23.2,29.1 -40,38.6 -16.8,9.5 -35.3,14.3 -55.2,14.3 -20.3,0 -38.8,-4.7 -55.7,-14.3 -16.8,-9.5 -30.2,-22.4 -40,-38.6 -9.8,-16.3 -14.8,-34.1 -14.8,-53.6 0,-19.5 4.9,-37.3 14.8,-53.5 9.8,-16.2 23.2,-29 40,-38.3 16.8,-9.4 35.4,-14 55.7,-14 20,-0.1 38.4,4.6 55.2,14.1 z m -98.1,19.9 c -13.1,7.4 -23.6,17.5 -31.4,30.1 -7.8,12.6 -11.8,26.5 -11.8,41.7 0,15.3 3.9,29.3 11.8,42 7.8,12.7 18.3,22.8 31.4,30.2 13.1,7.4 27.4,11.1 42.9,11.1 15.5,0 29.7,-3.7 42.7,-11.1 13,-7.4 23.3,-17.4 31.1,-30.2 7.7,-12.7 11.6,-26.7 11.6,-42 0,-15.3 -3.9,-29.2 -11.6,-41.8 -7.7,-12.6 -18.1,-22.6 -31.1,-30 -13,-7.4 -27.2,-11.2 -42.6,-11.2 -15.6,0 -29.8,3.7 -43,11.2 z"
     id="path4426"
     inkscape:connector-curvature="0"
     style="fill:#6d6e71" /><path
     d="m 6826.5,2269.8081 -126.3,-169.1 0,169.1 -24.1,0 0,-210.6 25,0 126.3,169.3 0,-169.3 23.8,0 0,210.6 -24.7,0 z"
     id="path4428"
     inkscape:connector-curvature="0"
     style="fill:#6d6e71" /><linearGradient
     id="SVGID_1_"
     gradientUnits="userSpaceOnUse"
     x1="-4516.6152"
     y1="-2338.7222"
     x2="-4108.4111"
     y2="-1861.3982"
     gradientTransform="matrix(0.4226,-0.9063,0.9063,0.4226,5117.8774,-2859.9262)"><stop
       offset="0"
       style="stop-color:#F69923"
       id="stop4431" /><stop
       offset="0.3123"
       style="stop-color:#F79A23"
       id="stop4433" /><stop
       offset="0.8383"
       style="stop-color:#E97826"
       id="stop4435" /></linearGradient><path
     d="m 1230.1,13.708128 c -45.3,26.8 -120.6,102.500002 -210.5,212.300002 l 82.6,155.9 c 58,-82.9 116.9,-157.5 176.3,-221.2 4.6,-5.1 7,-7.5 7,-7.5 -2.3,2.5 -4.6,5 -7,7.5 -19.2,21.2 -77.5,89.2 -165.5,224.4 84.7,-4.2 214.9,-21.6 321.1,-39.7 31.6,-177 -31,-258.000002 -31,-258.000002 0,0 -79.7,-128.8 -173,-73.7 z"
     id="path4437"
     inkscape:connector-curvature="0"
     style="fill:url(#SVGID_1_)" /><path
     d="m 1090.2,903.10813 c 0.6,-0.1 1.2,-0.2 1.8,-0.3 l -11.9,1.3 c -0.7,0.3 -1.4,0.7 -2.1,1 4.1,-0.7 8.2,-1.4 12.2,-2 z"
     id="path4439"
     inkscape:connector-curvature="0"
     style="fill:none" /><path
     d="m 1005.9,1182.3081 c -6.7,1.5 -13.7,2.7 -20.7,3.7 7.1,-1 14,-2.2 20.7,-3.7 z"
     id="path4441"
     inkscape:connector-curvature="0"
     style="fill:none" /><path
     d="m 432.9,1808.8081 c 0.9,-2.3 1.8,-4.7 2.6,-7 18.2,-48 36.2,-94.7 54,-140.1 20,-51 39.8,-100.4 59.3,-148.3 20.6,-50.4 40.9,-99.2 60.9,-146.3 21,-49.4 41.7,-97 62,-142.8 16.5,-37.3 32.8,-73.4 48.9,-108.3 5.4,-11.7 10.7,-23.2 16,-34.6 10.5,-22.7 21,-44.8 31.3,-66.5 9.5,-19.99997 19,-39.59997 28.3,-58.79997 3.1,-6.4 6.2,-12.8 9.3,-19.1 0.5,-1 1,-2 1.5,-3.1 l -10.2,1.1 -8,-15.9 c -0.8,1.6 -1.6,3.1 -2.4,4.6 -14.5,28.8 -28.9,57.9 -43.1,87.19997 -8.2,16.9 -16.4,34 -24.6,51 -22.6,47.4 -44.8,95.2 -66.6,143.3 -22.1,48.6 -43.7,97.5 -64.9,146.5 -20.8,48.1 -41.3,96.2 -61.2,144.2 -20,48 -39.5,95.7 -58.5,143.2 -19.9,49.5 -39.2,98.7 -58,147.2 -4.2,10.9 -8.5,21.9 -12.7,32.8 -15,39.2 -29.7,77.8 -44,116 l 12.7,25.1 11.4,-1.2 c 0.4,-1.1 0.8,-2.3 1.3,-3.4 18.5,-50.2 36.7,-99.2 54.7,-146.8 z"
     id="path4443"
     inkscape:connector-curvature="0"
     style="fill:none" /><path
     d="m 980,1186.8081 0,0 c 0.1,0 0.1,0 0.1,-0.1 0,0.1 0,0.1 -0.1,0.1 z"
     id="path4445"
     inkscape:connector-curvature="0"
     style="fill:none" /><path
     d="m 952.6,1323.0081 c -10.6,1.9 -21.4,3.8 -32.5,5.7 -0.1,0 -0.1,0.1 -0.2,0.1 5.6,-0.8 11.2,-1.7 16.6,-2.6 5.5,-1 10.8,-2.1 16.1,-3.2 z"
     id="path4447"
     inkscape:connector-curvature="0"
     style="fill:#be202e" /><path
     d="m 952.6,1323.0081 c -10.6,1.9 -21.4,3.8 -32.5,5.7 -0.1,0 -0.1,0.1 -0.2,0.1 5.6,-0.8 11.2,-1.7 16.6,-2.6 5.5,-1 10.8,-2.1 16.1,-3.2 z"
     id="path4449"
     inkscape:connector-curvature="0"
     style="opacity:0.35;fill:#be202e" /><path
     d="m 980.3,1186.7081 c -0.1,0 -0.1,0 0,0 -0.1,0.1 -0.2,0.1 -0.2,0.1 1.8,-0.2 3.5,-0.5 5.2,-0.8 7,-1 13.9,-2.2 20.7,-3.7 -8.5,1.5 -17,2.9 -25.7,4.4 l 0,0 0,0 z"
     id="path4451"
     inkscape:connector-curvature="0"
     style="fill:#be202e" /><path
     d="m 980.3,1186.7081 c -0.1,0 -0.1,0 0,0 -0.1,0.1 -0.2,0.1 -0.2,0.1 1.8,-0.2 3.5,-0.5 5.2,-0.8 7,-1 13.9,-2.2 20.7,-3.7 -8.5,1.5 -17,2.9 -25.7,4.4 l 0,0 0,0 z"
     id="path4453"
     inkscape:connector-curvature="0"
     style="opacity:0.35;fill:#be202e" /><linearGradient
     id="SVGID_2_"
     gradientUnits="userSpaceOnUse"
     x1="-7537.7339"
     y1="-2391.4075"
     x2="-4625.4141"
     y2="-2391.4075"
     gradientTransform="matrix(0.4226,-0.9063,0.9063,0.4226,5117.8774,-2859.9262)"><stop
       offset="0.3233"
       style="stop-color:#9E2064"
       id="stop4456" /><stop
       offset="0.6302"
       style="stop-color:#C92037"
       id="stop4458" /><stop
       offset="0.7514"
       style="stop-color:#CD2335"
       id="stop4460" /><stop
       offset="1"
       style="stop-color:#E97826"
       id="stop4462" /></linearGradient><path
     d="m 858.6,784.70813 c 25.1,-46.9 50.5,-92.8 76.2,-137.4 26.7,-46.4 53.7,-91.3 80.9,-134.7 1.6,-2.6 3.2,-5.2 4.8,-7.7 27,-42.7 54.2,-83.7 81.6,-122.9 l -82.6,-156 c -6.2,7.6 -12.5,15.3 -18.8,23.2 -23.8,29.7 -48.6,61.6 -73.9,95.5 -28.6,38.2 -58,78.9 -87.8,121.7 -27.6,39.5 -55.5,80.9 -83.5,123.7 -23.8,36.5 -47.7,74 -71.4,112.5 -0.9,1.4 -1.8,2.9 -2.6,4.3 l 107.5,212.3 c 22.8,-45.6 46.1,-90.5 69.6,-134.5 z"
     id="path4464"
     inkscape:connector-curvature="0"
     style="fill:url(#SVGID_2_)" /><linearGradient
     id="SVGID_3_"
     gradientUnits="userSpaceOnUse"
     x1="-7186.1777"
     y1="-2099.3059"
     x2="-5450.7183"
     y2="-2099.3059"
     gradientTransform="matrix(0.4226,-0.9063,0.9063,0.4226,5117.8774,-2859.9262)"><stop
       offset="0"
       style="stop-color:#282662"
       id="stop4467" /><stop
       offset="9.548390e-02"
       style="stop-color:#662E8D"
       id="stop4469" /><stop
       offset="0.7882"
       style="stop-color:#9F2064"
       id="stop4471" /><stop
       offset="0.9487"
       style="stop-color:#CD2032"
       id="stop4473" /></linearGradient><path
     d="m 369,1981.0081 c -14.2,39.1 -28.5,78.9 -42.9,119.6 -0.2,0.6 -0.4,1.2 -0.6,1.8 -2,5.7 -4.1,11.5 -6.1,17.2 -9.7,27.4 -18,52.1 -37.3,108.2 31.7,14.5 57.1,52.5 81.1,95.6 -2.6,-44.7 -21,-86.6 -56.2,-119.1 156.1,7 290.6,-32.4 360.1,-146.6 6.2,-10.2 11.9,-20.9 17,-32.2 -31.6,40.1 -70.8,57.1 -144.5,53 -0.2,0.1 -0.3,0.1 -0.5,0.2 0.2,-0.1 0.3,-0.1 0.5,-0.2 108.6,-48.6 163.1,-95.3 211.2,-172.6 11.4,-18.3 22.5,-38.4 33.8,-60.6 -94.9,97.5 -205,125.3 -320.9,104.2 l -86.9,9.5 c -2.4,7.3 -5.1,14.6 -7.8,22 z"
     id="path4475"
     inkscape:connector-curvature="0"
     style="fill:url(#SVGID_3_)" /><linearGradient
     id="SVGID_4_"
     gradientUnits="userSpaceOnUse"
     x1="-7374.1626"
     y1="-2418.5454"
     x2="-4461.8428"
     y2="-2418.5454"
     gradientTransform="matrix(0.4226,-0.9063,0.9063,0.4226,5117.8774,-2859.9262)"><stop
       offset="0.3233"
       style="stop-color:#9E2064"
       id="stop4478" /><stop
       offset="0.6302"
       style="stop-color:#C92037"
       id="stop4480" /><stop
       offset="0.7514"
       style="stop-color:#CD2335"
       id="stop4482" /><stop
       offset="1"
       style="stop-color:#E97826"
       id="stop4484" /></linearGradient><path
     d="m 409.6,1786.3081 c 18.8,-48.5 38.1,-97.7 58,-147.2 19,-47.4 38.5,-95.2 58.5,-143.2 20,-48 40.4,-96.1 61.2,-144.2 21.2,-49 42.9,-97.8 64.9,-146.5 21.8,-48.1 44,-95.9 66.6,-143.3 8.1,-17.1 16.3,-34.1 24.6,-51 14.2,-29.29997 28.6,-58.39997 43.1,-87.19997 0.8,-1.6 1.6,-3.1 2.4,-4.6 l -107.5,-212.3 c -1.8,2.9 -3.5,5.8 -5.3,8.6 -25.1,40.9 -50,82.7 -74.4,125.4 -24.7,43.1 -49,87.1 -72.7,131.7 -20,37.59997 -39.6,75.59997 -58.6,113.89997 -3.8,7.8 -7.6,15.5 -11.3,23.2 -23.4,48.2 -44.6,94.8 -63.7,139.5 -21.7,50.7 -40.7,99.2 -57.5,145.1 -11,30.2 -21,59.4 -30.1,87.4 -7.5,24 -14.7,47.9 -21.5,71.8 -16,56.3 -29.9,112.4 -41.2,168.3 l 107.9,213.4 c 14.3,-38.1 28.9,-76.8 44,-116 4.1,-10.9 8.4,-21.8 12.6,-32.8 z"
     id="path4486"
     inkscape:connector-curvature="0"
     style="fill:url(#SVGID_4_)" /><linearGradient
     id="SVGID_5_"
     gradientUnits="userSpaceOnUse"
     x1="-7161.7642"
     y1="-2379.1431"
     x2="-5631.2524"
     y2="-2379.1431"
     gradientTransform="matrix(0.4226,-0.9063,0.9063,0.4226,5117.8774,-2859.9262)"><stop
       offset="0"
       style="stop-color:#282662"
       id="stop4489" /><stop
       offset="9.548390e-02"
       style="stop-color:#662E8D"
       id="stop4491" /><stop
       offset="0.7882"
       style="stop-color:#9F2064"
       id="stop4493" /><stop
       offset="0.9487"
       style="stop-color:#CD2032"
       id="stop4495" /></linearGradient><path
     d="m 243.5,1729.4081 c -13.6,68.2 -23.2,136.2 -28,203.8 -0.2,2.4 -0.4,4.7 -0.5,7.1 -33.7,-54 -124,-106.8 -123.8,-106.2 64.6,93.7 113.7,186.7 120.9,278 -34.6,7.1 -82,-3.2 -136.8,-23.3 57.1,52.5 100,67 116.7,70.9 -52.5,3.3 -107.1,39.3 -162.1,80.8 80.5,-32.8 145.5,-45.8 192.1,-35.3 -73.9,209 -147.9,439.8 -222,684.8 22.7,-6.7 36.2,-21.9 43.9,-42.6 13.2,-44.4 100.8,-335.6 238,-718.2 3.9,-10.9 7.8,-21.8 11.8,-32.9 1.1,-3 2.2,-6.1 3.3,-9.2 14.5,-40.1 29.5,-81.1 45.1,-122.9 3.5,-9.5 7.1,-19 10.7,-28.6 0.1,-0.2 0.1,-0.4 0.2,-0.6 l -107.9,-213.2 c -0.5,2.6 -1.1,5.1 -1.6,7.6 z"
     id="path4497"
     inkscape:connector-curvature="0"
     style="fill:url(#SVGID_5_)" /><linearGradient
     id="SVGID_6_"
     gradientUnits="userSpaceOnUse"
     x1="-7374.1626"
     y1="-2117.1309"
     x2="-4461.8428"
     y2="-2117.1309"
     gradientTransform="matrix(0.4226,-0.9063,0.9063,0.4226,5117.8774,-2859.9262)"><stop
       offset="0.3233"
       style="stop-color:#9E2064"
       id="stop4500" /><stop
       offset="0.6302"
       style="stop-color:#C92037"
       id="stop4502" /><stop
       offset="0.7514"
       style="stop-color:#CD2335"
       id="stop4504" /><stop
       offset="1"
       style="stop-color:#E97826"
       id="stop4506" /></linearGradient><path
     d="m 805.6,937.00813 c -3.1,6.3 -6.2,12.7 -9.3,19.1 -9.3,19.2 -18.8,38.8 -28.3,58.79997 -10.3,21.7 -20.7,43.9 -31.3,66.5 -5.3,11.4 -10.6,22.9 -16,34.6 -16.1,35 -32.4,71.1 -48.9,108.3 -20.3,45.8 -41,93.4 -62,142.8 -20,47.1 -40.3,95.9 -60.9,146.3 -19.5,47.9 -39.3,97.3 -59.3,148.3 -17.8,45.4 -35.9,92.1 -54,140.1 -0.9,2.3 -1.8,4.7 -2.6,7 -18,47.6 -36.2,96.6 -54.6,146.8 -0.4,1.1 -0.8,2.3 -1.3,3.4 l 86.9,-9.5 c -1.7,-0.3 -3.5,-0.5 -5.2,-0.9 103.9,-13 242.1,-90.6 331.4,-186.5 41.1,-44.2 78.5,-96.3 113,-157.3 25.7,-45.4 49.8,-95.8 72.8,-151.5 20.1,-48.7 39.4,-101.4 58,-158.6 -23.9,12.6 -51.2,21.8 -81.4,28.2 -5.3,1.1 -10.7,2.2 -16.1,3.1 -5.5,1 -11,1.8 -16.6,2.6 l 0,0 0,0 c 0.1,0 0.1,-0.1 0.2,-0.1 96.9,-37.3 158,-109.2 202.4,-197.4 -25.5,17.4 -66.9,40.1 -116.6,51.1 -6.7,1.5 -13.7,2.7 -20.7,3.7 -1.7,0.3 -3.5,0.6 -5.2,0.8 l 0,0 0,0 c 0.1,0 0.1,0 0.1,-0.1 0,0 0.1,0 0.1,0 l 0,0 c 33.6,-14.1 62,-29.8 86.6,-48.4 5.3,-4 10.4,-8.1 15.3,-12.3 7.5,-6.5 14.7,-13.3 21.5,-20.5 4.4,-4.6 8.6,-9.3 12.7,-14.2 9.6,-11.5 18.7,-23.9 27.1,-37.3 2.6,-4.1 5.1,-8.3 7.6,-12.6 3.2,-6.2 6.3,-12.3 9.3,-18.3 13.5,-27.19997 24.4,-51.49997 33,-72.79997 4.3,-10.6 8.1,-20.5 11.3,-29.7 1.3,-3.7 2.5,-7.2 3.7,-10.6 3.4,-10.2 6.2,-19.3 8.4,-27.3 3.3,-12 5.3,-21.5 6.4,-28.4 l 0,0 0,0 c -3.3,2.6 -7.1,5.2 -11.3,7.7 -29.3,17.5 -79.5,33.4 -119.9,40.8 l 79.8,-8.8 -79.8,8.8 c -0.6,0.1 -1.2,0.2 -1.8,0.3 -4,0.7 -8.1,1.3 -12.2,2 0.7,-0.3 1.4,-0.7 2.1,-1 l -273,29.9 c -0.4,1.1 -0.9,2.1 -1.4,3.1 z"
     id="path4508"
     inkscape:connector-curvature="0"
     style="fill:url(#SVGID_6_)" /><linearGradient
     id="SVGID_7_"
     gradientUnits="userSpaceOnUse"
     x1="-7554.8232"
     y1="-2132.0981"
     x2="-4642.5034"
     y2="-2132.0981"
     gradientTransform="matrix(0.4226,-0.9063,0.9063,0.4226,5117.8774,-2859.9262)"><stop
       offset="0.3233"
       style="stop-color:#9E2064"
       id="stop4511" /><stop
       offset="0.6302"
       style="stop-color:#C92037"
       id="stop4513" /><stop
       offset="0.7514"
       style="stop-color:#CD2335"
       id="stop4515" /><stop
       offset="1"
       style="stop-color:#E97826"
       id="stop4517" /></linearGradient><path
     d="m 1112.9,385.10813 c -24.3,37.3 -50.8,79.6 -79.4,127.5 -1.5,2.5 -3,5.1 -4.5,7.6 -24.6,41.5 -50.8,87.1 -78.3,137 -23.8,43.1 -48.5,89.3 -74.3,139 -22.4,43.3 -45.6,89.2 -69.4,137.8 l 273,-29.9 c 79.5,-36.6 115.1,-69.7 149.6,-117.6 9.2,-13.2 18.4,-27 27.5,-41.3 28,-43.8 55.6,-92 80.1,-139.9 23.7,-46.3 44.7,-92.2 60.7,-133.5 10.2,-26.3 18.4,-50.8 24.1,-72.3 5,-19 8.9,-36.9 11.9,-54.1 -106,18.1 -236.3,35.5 -321,39.7 z"
     id="path4519"
     inkscape:connector-curvature="0"
     style="fill:url(#SVGID_7_)" /><path
     d="m 936.5,1326.1081 c -5.5,1 -11,1.8 -16.6,2.6 l 0,0 c 5.6,-0.7 11.1,-1.6 16.6,-2.6 z"
     id="path4521"
     inkscape:connector-curvature="0"
     style="fill:#be202e" /><path
     d="m 936.5,1326.1081 c -5.5,1 -11,1.8 -16.6,2.6 l 0,0 c 5.6,-0.7 11.1,-1.6 16.6,-2.6 z"
     id="path4523"
     inkscape:connector-curvature="0"
     style="opacity:0.35;fill:#be202e" /><linearGradient
     id="SVGID_8_"
     gradientUnits="userSpaceOnUse"
     x1="-7374.1626"
     y1="-2027.484"
     x2="-4461.8433"
     y2="-2027.484"
     gradientTransform="matrix(0.4226,-0.9063,0.9063,0.4226,5117.8774,-2859.9262)"><stop
       offset="0.3233"
       style="stop-color:#9E2064"
       id="stop4526" /><stop
       offset="0.6302"
       style="stop-color:#C92037"
       id="stop4528" /><stop
       offset="0.7514"
       style="stop-color:#CD2335"
       id="stop4530" /><stop
       offset="1"
       style="stop-color:#E97826"
       id="stop4532" /></linearGradient><path
     d="m 936.5,1326.1081 c -5.5,1 -11,1.8 -16.6,2.6 l 0,0 c 5.6,-0.7 11.1,-1.6 16.6,-2.6 z"
     id="path4534"
     inkscape:connector-curvature="0"
     style="fill:url(#SVGID_8_)" /><path
     d="m 980,1186.8081 c 1.8,-0.2 3.5,-0.5 5.2,-0.8 -1.7,0.3 -3.4,0.6 -5.2,0.8 l 0,0 z"
     id="path4536"
     inkscape:connector-curvature="0"
     style="fill:#be202e" /><path
     d="m 980,1186.8081 c 1.8,-0.2 3.5,-0.5 5.2,-0.8 -1.7,0.3 -3.4,0.6 -5.2,0.8 l 0,0 z"
     id="path4538"
     inkscape:connector-curvature="0"
     style="opacity:0.35;fill:#be202e" /><linearGradient
     id="SVGID_9_"
     gradientUnits="userSpaceOnUse"
     x1="-7374.1626"
     y1="-2037.7417"
     x2="-4461.8433"
     y2="-2037.7417"
     gradientTransform="matrix(0.4226,-0.9063,0.9063,0.4226,5117.8774,-2859.9262)"><stop
       offset="0.3233"
       style="stop-color:#9E2064"
       id="stop4541" /><stop
       offset="0.6302"
       style="stop-color:#C92037"
       id="stop4543" /><stop
       offset="0.7514"
       style="stop-color:#CD2335"
       id="stop4545" /><stop
       offset="1"
       style="stop-color:#E97826"
       id="stop4547" /></linearGradient><path
     d="m 980,1186.8081 c 1.8,-0.2 3.5,-0.5 5.2,-0.8 -1.7,0.3 -3.4,0.6 -5.2,0.8 l 0,0 z"
     id="path4549"
     inkscape:connector-curvature="0"
     style="fill:url(#SVGID_9_)" /><path
     d="m 980.2,1186.7081 c 0,0 0,0 0,0 l 0,0 0,0 0,0 c 0,0 0,0 0,0 z"
     id="path4551"
     inkscape:connector-curvature="0"
     style="fill:#be202e" /><path
     d="m 980.2,1186.7081 c 0,0 0,0 0,0 l 0,0 0,0 0,0 c 0,0 0,0 0,0 z"
     id="path4553"
     inkscape:connector-curvature="0"
     style="opacity:0.35;fill:#be202e" /><linearGradient
     id="SVGID_10_"
     gradientUnits="userSpaceOnUse"
     x1="-5738.0635"
     y1="-2039.799"
     x2="-5094.3457"
     y2="-2039.799"
     gradientTransform="matrix(0.4226,-0.9063,0.9063,0.4226,5117.8774,-2859.9262)"><stop
       offset="0.3233"
       style="stop-color:#9E2064"
       id="stop4556" /><stop
       offset="0.6302"
       style="stop-color:#C92037"
       id="stop4558" /><stop
       offset="0.7514"
       style="stop-color:#CD2335"
       id="stop4560" /><stop
       offset="1"
       style="stop-color:#E97826"
       id="stop4562" /></linearGradient><path
     d="m 980.2,1186.7081 c 0,0 0,0 0,0 l 0,0 0,0 0,0 c 0,0 0,0 0,0 z"
     id="path4564"
     inkscape:connector-curvature="0"
     style="fill:url(#SVGID_10_)" /></svg>